<svg width="1266" height="632" viewBox="0 0 1266 632" fill="none" xmlns="http://www.w3.org/2000/svg">
<g opacity="0.3">
<path d="M-245.7 391.223C-132.445 391.473 -21.8914 474.609 201.917 474.609C425.716 474.609 424.629 391.092 649.524 391.223C874.419 391.354 978.484 577.448 1097.14 580.2" stroke="#4FBDBA" stroke-opacity="0.4" stroke-width="2"/>
<path d="M-120.284 75.5109C49.9371 80.5617 254.498 357.832 514.978 369.03C775.458 380.228 741.837 574.1 832.614 581.128" stroke="#4FBDBA" stroke-opacity="0.4" stroke-width="2"/>
<path d="M-90.6597 102.028C85.3131 104.148 234.682 324.299 587.215 328.838C939.759 333.377 1088.54 563.451 1265.1 565.869" stroke="#4FBDBA" stroke-opacity="0.4" stroke-width="2"/>
<path d="M-286 194.562C-169.725 191.477 -81.0307 -4.21808 150.164 1.10672C381.359 6.43152 431.617 512.442 586.328 562.128" stroke="#4FBDBA" stroke-opacity="0.4" stroke-width="2"/>
<path d="M-53.8484 104.494C45.3419 104.815 141.442 187.88 336.743 187.88C532.033 187.88 511.419 93.4986 727.323 104.494C943.228 115.489 976.739 580.95 1117.91 630.16" stroke="#4FBDBA" stroke-opacity="0.4" stroke-width="2"/>
</g>
</svg>
