<svg width="110" height="70" viewBox="0 0 110 70" fill="none" xmlns="http://www.w3.org/2000/svg">
<circle cx="5" cy="5" r="5" fill="#4FBDBA" fill-opacity="0.2"/>
<circle cx="85" cy="5" r="5" fill="#4FBDBA" fill-opacity="0.2"/>
<circle cx="5" cy="45" r="5" fill="#4FBDBA" fill-opacity="0.2"/>
<circle cx="85" cy="45" r="5" fill="#4FBDBA" fill-opacity="0.2"/>
<circle cx="5" cy="25" r="5" fill="#4FBDBA" fill-opacity="0.2"/>
<circle cx="85" cy="25" r="5" fill="#4FBDBA" fill-opacity="0.2"/>
<circle cx="5" cy="65" r="5" fill="#4FBDBA" fill-opacity="0.2"/>
<circle cx="85" cy="65" r="5" fill="#4FBDBA" fill-opacity="0.2"/>
<circle cx="45" cy="25" r="5" fill="#4FBDBA" fill-opacity="0.2"/>
<circle cx="45" cy="65" r="5" fill="#4FBDBA" fill-opacity="0.2"/>
<circle cx="45" cy="5" r="5" fill="#4FBDBA" fill-opacity="0.2"/>
<circle cx="45" cy="45" r="5" fill="#4FBDBA" fill-opacity="0.2"/>
<circle cx="25" cy="5" r="5" fill="#4FBDBA" fill-opacity="0.2"/>
<circle cx="105" cy="5" r="5" fill="#4FBDBA" fill-opacity="0.2"/>
<circle cx="25" cy="45" r="5" fill="#4FBDBA" fill-opacity="0.2"/>
<circle cx="105" cy="45" r="5" fill="#4FBDBA" fill-opacity="0.2"/>
<circle cx="25" cy="25" r="5" fill="#4FBDBA" fill-opacity="0.2"/>
<circle cx="105" cy="25" r="5" fill="#4FBDBA" fill-opacity="0.2"/>
<circle cx="25" cy="65" r="5" fill="#4FBDBA" fill-opacity="0.2"/>
<circle cx="105" cy="65" r="5" fill="#4FBDBA" fill-opacity="0.2"/>
<circle cx="65" cy="25" r="5" fill="#4FBDBA" fill-opacity="0.2"/>
<circle cx="65" cy="65" r="5" fill="#4FBDBA" fill-opacity="0.2"/>
<circle cx="65" cy="5" r="5" fill="#4FBDBA" fill-opacity="0.2"/>
<circle cx="65" cy="45" r="5" fill="#4FBDBA" fill-opacity="0.2"/>
</svg>
