<svg xmlns:xlink="http://www.w3.org/1999/xlink" xmlns="http://www.w3.org/2000/svg" class="svg-logo" width="233" height="63"><defs><symbol id="svg_logo" viewBox="0 0 106 33"><path d="M0 31.362V1.732C0 1.127.356.826 1.07.826c.711 0 1.069.301 1.069.904v29.631c0 .633-.357.948-1.07.948-.713 0-1.069-.317-1.069-.948zm8.895 0V1.86c0-.689.357-1.033 1.07-1.033.57 0 1.168.588 1.796 1.765l7.827 15.419 7.87-15.419c.627-1.177 1.225-1.765 1.796-1.765.712 0 1.07.344 1.07 1.033v29.502c0 .633-.357.948-1.07.948-.713 0-1.07-.317-1.07-.948V5.736L20.573 20.38c-.343.603-.67.904-.984.904-.37 0-.7-.301-.984-.904l-7.57-14.687v25.67c0 .632-.357.947-1.07.947-.712 0-1.069-.317-1.069-.948zm25.791 0a.6.6 0 01.043-.258l9.146-29.762c.166-.516.556-.774 1.168-.774.612 0 1.002.265 1.169.795l9.133 29.986.02.072c.015.05.022.095.022.14 0 .205-.128.38-.386.527a1.67 1.67 0 01-.854.221c-.457 0-.742-.215-.856-.646l-2.095-6.848H38.872l-2.073 6.84c-.14.435-.451.654-.929.654-.31 0-.584-.086-.824-.258a.805.805 0 01-.36-.689zm4.785-8.527h11.127l-5.55-18.4-5.577 18.4zm43.676.689V9.87c0-3.13.776-5.42 2.33-6.87C87.03 1.554 89.119.828 91.743.828c2.594 0 4.683.726 6.265 2.175 1.582 1.45 2.374 3.74 2.374 6.87v13.652c0 3.13-.792 5.42-2.374 6.87-1.582 1.45-3.672 2.174-6.265 2.174-2.624 0-4.712-.726-6.266-2.175-1.554-1.449-2.33-3.74-2.33-6.87zm2.136 0c0 4.651 2.153 6.976 6.459 6.976 2.08 0 3.684-.58 4.811-1.743 1.127-1.163 1.69-2.908 1.69-5.233V9.87c0-2.326-.563-4.07-1.69-5.233-1.128-1.163-2.73-1.744-4.811-1.744-4.306 0-6.459 2.326-6.459 6.977v13.653zM74.613 3.002C73.03 1.552 70.94.827 68.347.827h-7.57c-.285 0-.527.093-.727.28-.2.186-.3.394-.3.624v29.674c0 .23.1.437.3.625.2.186.442.28.727.28h7.57c2.595 0 4.684-.725 6.266-2.175 1.583-1.45 2.373-3.74 2.373-6.87V9.871c0-3.13-.79-5.42-2.373-6.87zm-1.454 1.636c1.126 1.163 1.69 2.907 1.69 5.233v13.394c0 .927-.093 1.758-.273 2.5L62.791 2.894h5.556c2.081 0 3.685.581 4.812 1.744zm-4.812 25.605H61.89V5.517L73.516 28.08c-.113.145-.23.285-.356.416-1.128 1.164-2.732 1.745-4.813 1.745z"></path><path d="M103.412 30.723c0-.425.122-.779.369-1.066.246-.285.56-.43.94-.43.34 0 .64.149.895.445.255.298.385.648.385 1.05 0 .383-.13.723-.385 1.02-.255.296-.555.446-.895.446a1.19 1.19 0 01-.94-.43 1.524 1.524 0 01-.369-1.035z" fill="#F2F7FF"></path></symbol></defs>
<use xlink:href="#svg_logo" fill="#F2F7FF"></use>
</svg>