<svg width="652" height="363" viewBox="0 0 652 363" fill="none" xmlns="http://www.w3.org/2000/svg">
<g clip-path="url(#clip0_17_303)">
<path d="M652 230.246C652 200.233 627.663 129.014 597.642 129.014C567.621 129.014 543.284 200.233 543.284 230.246C543.294 244.662 549.025 258.484 559.218 268.674C569.411 278.865 583.232 284.589 597.642 284.589C612.052 284.589 625.873 278.865 636.066 268.674C646.259 258.484 651.99 244.662 652 230.246Z" fill="#F2F2F2"/>
<path d="M597.642 362.457C597.7 362.457 597.759 362.445 597.813 362.423C597.867 362.4 597.916 362.367 597.958 362.326C597.999 362.284 598.032 362.235 598.055 362.181C598.077 362.126 598.089 362.068 598.089 362.01V174.652C598.088 174.534 598.041 174.421 597.957 174.337C597.874 174.254 597.76 174.207 597.642 174.207C597.524 174.207 597.41 174.254 597.326 174.337C597.243 174.421 597.195 174.534 597.195 174.652V362.01C597.195 362.068 597.206 362.126 597.229 362.181C597.251 362.235 597.284 362.284 597.326 362.326C597.367 362.367 597.417 362.4 597.471 362.423C597.525 362.445 597.583 362.457 597.642 362.457Z" fill="#CCCCCC"/>
<path d="M597.642 210.823C597.701 210.823 597.759 210.811 597.813 210.789C597.867 210.766 597.917 210.734 597.958 210.692L619.473 189.183C619.557 189.099 619.604 188.986 619.604 188.867C619.604 188.748 619.556 188.635 619.473 188.551C619.389 188.467 619.275 188.42 619.157 188.42C619.038 188.42 618.924 188.467 618.841 188.551L597.326 210.06C597.263 210.123 597.221 210.202 597.204 210.289C597.186 210.376 597.195 210.465 597.229 210.547C597.263 210.629 597.32 210.699 597.394 210.748C597.467 210.797 597.554 210.823 597.642 210.823Z" fill="#CCCCCC"/>
<path d="M597.642 248.059C597.73 248.059 597.817 248.033 597.89 247.984C597.964 247.935 598.021 247.865 598.055 247.783C598.089 247.702 598.097 247.612 598.08 247.525C598.063 247.438 598.02 247.359 597.958 247.296L561.927 211.275C561.886 211.234 561.837 211.201 561.783 211.178C561.728 211.156 561.67 211.144 561.612 211.144C561.553 211.144 561.495 211.156 561.441 211.178C561.386 211.201 561.337 211.234 561.296 211.275C561.254 211.317 561.221 211.366 561.199 211.42C561.176 211.474 561.165 211.532 561.165 211.591C561.165 211.65 561.176 211.708 561.199 211.762C561.221 211.816 561.254 211.866 561.295 211.907L597.326 247.928C597.367 247.97 597.417 248.003 597.471 248.025C597.525 248.047 597.583 248.059 597.642 248.059Z" fill="#CCCCCC"/>
<path d="M645.071 363H467.293C467.128 363 466.97 362.935 466.853 362.818C466.736 362.701 466.671 362.543 466.671 362.378C466.671 362.213 466.736 362.055 466.853 361.938C466.97 361.822 467.128 361.756 467.293 361.756H645.071C645.236 361.756 645.394 361.822 645.51 361.938C645.627 362.055 645.693 362.213 645.693 362.378C645.693 362.543 645.627 362.701 645.51 362.818C645.394 362.935 645.236 363 645.071 363Z" fill="#CCCCCC"/>
<path d="M519.559 355.056L511.939 355.056L508.313 325.65L519.561 325.65L519.559 355.056Z" fill="#FFB8B8"/>
<path d="M506.495 352.877H521.192V362.135H497.241C497.241 359.68 498.216 357.325 499.952 355.589C501.687 353.853 504.041 352.877 506.495 352.877Z" fill="#2F2E41"/>
<path d="M574.854 346.42L567.923 349.588L552.411 324.347L562.642 319.672L574.854 346.42Z" fill="#FFB8B8"/>
<path d="M562.066 349.869L575.435 343.76L579.28 352.181L557.494 362.136C556.989 361.03 556.707 359.835 556.663 358.62C556.62 357.405 556.816 356.194 557.241 355.055C557.665 353.916 558.31 352.871 559.138 351.982C559.966 351.092 560.961 350.374 562.066 349.869Z" fill="#2F2E41"/>
<path d="M519.074 347.302H511.794C511.088 347.3 510.408 347.031 509.891 346.55C509.374 346.069 509.057 345.411 509.004 344.707L505.033 238.644C505.004 238.238 505.064 237.83 505.208 237.449C505.353 237.068 505.578 236.723 505.87 236.439C506.162 236.154 506.512 235.937 506.896 235.801C507.28 235.666 507.69 235.617 508.095 235.657L550.199 240.13C550.882 240.197 551.516 240.512 551.981 241.015C552.447 241.519 552.711 242.176 552.724 242.862L553.607 289.647C553.611 289.901 553.661 290.152 553.752 290.389L571.023 335.196C571.157 335.542 571.22 335.911 571.21 336.282C571.199 336.653 571.115 337.018 570.962 337.356C570.809 337.694 570.591 337.998 570.319 338.251C570.048 338.503 569.728 338.7 569.38 338.828L562.003 341.547C561.362 341.783 560.657 341.777 560.021 341.529C559.385 341.281 558.861 340.809 558.549 340.201L537.332 298.93C537.216 298.705 537.132 298.466 537.08 298.219L533.456 280.749C533.351 280.242 533.069 279.79 532.66 279.472C532.252 279.155 531.744 278.993 531.227 279.017C530.711 279.04 530.219 279.247 529.841 279.6C529.463 279.953 529.223 280.429 529.164 280.943L521.853 344.822C521.775 345.505 521.449 346.135 520.936 346.592C520.423 347.05 519.761 347.302 519.074 347.302Z" fill="#2F2E41"/>
<path d="M522.699 155.714C531.131 155.714 537.966 148.876 537.966 140.441C537.966 132.005 531.131 125.167 522.699 125.167C514.267 125.167 507.432 132.005 507.432 140.441C507.432 148.876 514.267 155.714 522.699 155.714Z" fill="#FFB8B8"/>
<path d="M533.225 248.322C519.72 248.323 509.146 242.698 505.317 240.344H505.318C504.883 240.077 504.531 239.695 504.299 239.242C504.067 238.788 503.964 238.279 504.002 237.77L507.714 184.681C507.953 181.098 509.026 177.621 510.848 174.527C512.67 171.433 515.19 168.809 518.207 166.864C521.09 164.955 524.378 163.748 527.81 163.339C531.242 162.93 534.722 163.33 537.971 164.507C539.406 165.003 540.76 165.705 541.991 166.591C550.216 172.719 554.179 181.947 552.867 191.908C550.144 212.565 553.228 240.431 553.589 243.54L553.615 243.764L553.41 243.858C547.087 246.799 540.198 248.322 533.225 248.322Z" fill="#4FBDBA"/>
<path d="M552.661 255.906C553.392 255.356 553.992 254.653 554.421 253.846C554.851 253.039 555.098 252.147 555.145 251.234C555.193 250.321 555.039 249.409 554.696 248.562C554.353 247.714 553.829 246.953 553.159 246.33L562.118 225.996L550.737 227.925L543.975 246.939C543.004 248.133 542.505 249.642 542.571 251.18C542.638 252.717 543.266 254.177 544.337 255.282C545.408 256.388 546.847 257.062 548.381 257.176C549.915 257.291 551.438 256.839 552.661 255.906Z" fill="#FFB8B8"/>
<path d="M553.518 243.345C553.131 243.345 552.748 243.264 552.393 243.108C552.039 242.951 551.721 242.723 551.459 242.437L548.12 238.792C547.795 238.435 547.567 238.001 547.459 237.531C547.35 237.061 547.364 236.571 547.499 236.108L555.148 210.21L543.51 185.761C543 184.686 542.875 183.468 543.156 182.312C543.404 181.297 543.954 180.382 544.733 179.686C545.512 178.99 546.483 178.546 547.519 178.414C548.555 178.282 549.606 178.466 550.535 178.944C551.464 179.422 552.226 180.17 552.721 181.09L568.453 206.628C569.066 207.62 569.425 208.747 569.499 209.91C569.574 211.074 569.362 212.238 568.882 213.3L556.071 241.697C555.881 242.12 555.589 242.488 555.221 242.77C554.853 243.051 554.421 243.236 553.964 243.309C553.817 243.333 553.667 243.345 553.518 243.345Z" fill="#4FBDBA"/>
<path d="M535.278 153.906C533.695 154.177 532.392 151.973 532.195 150.422C531.998 148.872 532.563 147.387 532.624 145.847C532.686 144.306 531.96 142.434 530.36 141.977C528.684 141.498 527.129 142.844 525.413 142.682C523.021 142.456 521.82 139.656 521.53 137.391C521.241 135.125 521.013 132.443 518.941 131.151C516.876 129.863 514.322 130.8 511.949 130.84C507.939 130.908 503.856 127.849 502.919 124.073C503.405 124.213 503.925 124.187 504.395 123.999C504.865 123.811 505.259 123.471 505.514 123.033C505.715 122.567 505.756 122.047 505.63 121.554C505.505 121.062 505.221 120.625 504.821 120.311L509.367 122.538C508.746 121.273 509.684 119.832 510.975 119.353C512.267 118.874 513.769 119.089 515.195 119.311C522.312 120.417 530.556 119.872 535.278 125.301C538.548 129.061 541.24 136.217 540.872 140.847C540.505 145.477 535.278 153.906 535.278 153.906Z" fill="#2F2E41"/>
<path d="M454.324 179.943C455.118 179.491 456.002 179.218 456.913 179.144C457.824 179.07 458.74 179.197 459.596 179.516C460.453 179.834 461.229 180.337 461.87 180.988C462.512 181.639 463.003 182.423 463.308 183.284L485.521 183.124L479.236 192.81L459.106 191.477C457.625 191.895 456.043 191.755 454.658 191.084C453.274 190.413 452.184 189.257 451.594 187.835C451.005 186.413 450.957 184.825 451.46 183.37C451.964 181.916 452.983 180.696 454.324 179.943Z" fill="#FFB8B8"/>
<path d="M465.882 190.5C465.803 190.121 465.804 189.729 465.885 189.35C465.966 188.971 466.124 188.613 466.351 188.299L469.237 184.285C469.52 183.894 469.898 183.582 470.336 183.38C470.773 183.178 471.256 183.092 471.736 183.13L497.719 182.041L520.193 168.957C521.141 168.238 522.307 167.867 523.496 167.907C524.539 167.943 525.548 168.294 526.387 168.915C527.227 169.536 527.859 170.397 528.2 171.385C528.541 172.372 528.574 173.44 528.296 174.447C528.018 175.454 527.442 176.353 526.642 177.025L504.859 197.641C504.013 198.442 502.983 199.024 501.86 199.334C500.736 199.645 499.554 199.675 498.417 199.421L468.015 192.664C467.563 192.565 467.143 192.354 466.793 192.051C466.442 191.748 466.173 191.363 466.008 190.929C465.955 190.79 465.913 190.646 465.882 190.5Z" fill="#4FBDBA"/>
<path d="M358.529 50.4243L350.019 65.1645L320.919 14.7406L231.586 169.513H292.071C292.071 173.422 293.623 177.172 296.386 179.936C299.149 182.7 302.897 184.253 306.805 184.253H231.586C229 184.253 226.46 183.571 224.22 182.277C221.981 180.983 220.121 179.123 218.828 176.882C217.535 174.641 216.855 172.099 216.855 169.512C216.855 166.925 217.536 164.383 218.829 162.143L308.162 7.37053C309.455 5.12962 311.315 3.26874 313.555 1.97494C315.795 0.681134 318.336 0 320.922 0C323.509 0 326.05 0.681134 328.29 1.97494C330.53 3.26874 332.39 5.12962 333.683 7.37053L358.529 50.4243Z" fill="#00C58E"/>
<path d="M423.016 162.143L367.038 65.1645L358.528 50.4243L350.019 65.1645L294.047 162.143C292.754 164.384 292.074 166.925 292.073 169.512C292.073 172.1 292.754 174.641 294.047 176.882C295.34 179.123 297.199 180.983 299.439 182.277C301.678 183.571 304.219 184.253 306.805 184.253H410.24C412.826 184.254 415.368 183.573 417.608 182.28C419.848 180.986 421.709 179.126 423.002 176.885C424.296 174.644 424.977 172.102 424.977 169.514C424.977 166.926 424.297 164.384 423.003 162.143H423.016V162.143ZM306.805 169.513L358.528 79.9048L410.24 169.513H306.805V169.513Z" fill="#2F495E"/>
<path d="M463.038 176.883C461.745 179.124 459.885 180.984 457.646 182.278C455.407 183.572 452.866 184.253 450.28 184.253H410.24C412.175 184.253 414.091 183.872 415.878 183.131C417.666 182.39 419.29 181.305 420.658 179.936C422.027 178.567 423.112 176.942 423.852 175.154C424.593 173.365 424.974 171.449 424.974 169.513H450.249L378.53 45.2467L367.038 65.1645L358.529 50.4243L365.773 37.8766C367.066 35.6357 368.926 33.7748 371.166 32.481C373.406 31.1872 375.947 30.5061 378.533 30.5061C381.12 30.5061 383.661 31.1872 385.901 32.481C388.141 33.7748 390.001 35.6357 391.294 37.8766L463.038 162.143C464.331 164.384 465.012 166.926 465.012 169.513C465.012 172.1 464.331 174.642 463.038 176.883Z" fill="#108775"/>
<path d="M171.999 361.756C171.999 355.654 174.422 349.802 178.736 345.487C183.049 341.172 188.899 338.748 194.999 338.748C201.098 338.748 206.948 341.172 211.262 345.487C215.575 349.802 217.998 355.654 217.998 361.756" fill="#F2F2F2"/>
<path d="M157.468 220.537L27.7736 253.501C26.1462 253.913 24.4219 253.662 22.9792 252.803C21.5364 251.945 20.493 250.549 20.0778 248.922L1.16517 174.45C0.863669 173.257 1.04741 171.994 1.6761 170.936C2.30479 169.879 3.32707 169.114 4.51868 168.81L137.417 135.031C138.63 134.724 139.915 134.911 140.99 135.551C142.066 136.191 142.843 137.232 143.153 138.444L162.046 212.838C162.457 214.466 162.206 216.191 161.348 217.634C160.49 219.078 159.095 220.121 157.468 220.537Z" fill="#F2F2F2"/>
<path d="M32.1653 245.849L149.958 215.91C151.537 215.509 152.891 214.497 153.723 213.097C154.556 211.697 154.798 210.023 154.397 208.444L139.888 151.314C139.487 149.735 138.476 148.38 137.076 147.547C135.677 146.714 134.004 146.472 132.426 146.873L14.6328 176.812C13.0546 177.214 11.7003 178.225 10.8678 179.626C10.0354 181.026 9.79298 182.699 10.194 184.278L24.7028 241.409C25.1038 242.988 26.1153 244.342 27.5147 245.175C28.9142 246.008 30.5871 246.25 32.1653 245.849Z" fill="white"/>
<path d="M142.959 138.037L0.990033 174.121L0.196278 170.995C-0.216097 169.362 0.0361188 167.631 0.897593 166.183C1.75907 164.735 3.15945 163.688 4.79151 163.272L134.442 130.319C136.075 129.906 137.805 130.157 139.253 131.018C140.7 131.879 141.748 133.279 142.165 134.911L142.959 138.037Z" fill="#E6E6E6"/>
<path d="M11.0065 168.288C11.9143 168.288 12.6502 167.552 12.6502 166.644C12.6502 165.735 11.9143 164.999 11.0065 164.999C10.0987 164.999 9.36279 165.735 9.36279 166.644C9.36279 167.552 10.0987 168.288 11.0065 168.288Z" fill="white"/>
<path d="M17.0536 166.751C17.9614 166.751 18.6973 166.015 18.6973 165.107C18.6973 164.199 17.9614 163.462 17.0536 163.462C16.1458 163.462 15.4099 164.199 15.4099 165.107C15.4099 166.015 16.1458 166.751 17.0536 166.751Z" fill="white"/>
<path d="M23.1005 165.214C24.0083 165.214 24.7442 164.478 24.7442 163.57C24.7442 162.662 24.0083 161.925 23.1005 161.925C22.1927 161.925 21.4568 162.662 21.4568 163.57C21.4568 164.478 22.1927 165.214 23.1005 165.214Z" fill="white"/>
<path d="M138.318 196.579L32.3666 223.509C31.9759 223.608 31.5694 223.63 31.1704 223.572C30.7714 223.514 30.3878 223.378 30.0413 223.172C29.6948 222.966 29.3923 222.693 29.1511 222.37C28.9098 222.047 28.7346 221.679 28.6353 221.289C28.536 220.898 28.5147 220.491 28.5725 220.092C28.6303 219.693 28.7661 219.309 28.9722 218.962C29.1783 218.616 29.4507 218.313 29.7737 218.072C30.0967 217.83 30.464 217.655 30.8547 217.556L136.806 190.626C137.595 190.425 138.432 190.547 139.132 190.963C139.831 191.38 140.337 192.057 140.538 192.846C140.738 193.636 140.617 194.473 140.201 195.173C139.784 195.873 139.107 196.379 138.318 196.579Z" fill="#E6E6E6"/>
<path d="M138.455 208.031L107.259 215.96C106.869 216.06 106.462 216.081 106.063 216.023C105.664 215.965 105.281 215.83 104.934 215.623C104.588 215.417 104.285 215.145 104.044 214.822C103.803 214.498 103.627 214.131 103.528 213.74C103.429 213.349 103.408 212.943 103.465 212.543C103.523 212.144 103.659 211.76 103.865 211.414C104.071 211.067 104.343 210.765 104.666 210.523C104.989 210.282 105.357 210.107 105.748 210.007L136.943 202.078C137.732 201.877 138.569 201.999 139.268 202.415C139.968 202.831 140.474 203.509 140.674 204.298C140.875 205.088 140.754 205.924 140.337 206.624C139.921 207.324 139.244 207.83 138.455 208.031Z" fill="#CCCCCC"/>
<path d="M133.374 169.317L66.1027 186.416C65.3136 186.617 64.4771 186.496 63.7774 186.079C63.0776 185.663 62.5719 184.985 62.3714 184.196C62.1709 183.406 62.2921 182.57 62.7083 181.87C63.1246 181.17 63.8017 180.664 64.5908 180.463L131.863 163.364C132.253 163.265 132.66 163.243 133.059 163.301C133.458 163.358 133.842 163.494 134.189 163.7C134.536 163.907 134.838 164.179 135.08 164.502C135.321 164.825 135.497 165.193 135.596 165.584C135.695 165.975 135.717 166.382 135.659 166.781C135.601 167.181 135.465 167.565 135.258 167.911C135.052 168.258 134.78 168.561 134.456 168.802C134.133 169.043 133.765 169.218 133.374 169.317Z" fill="#E6E6E6"/>
<path d="M136.115 180.108L68.8429 197.206C68.0538 197.407 67.2174 197.286 66.5176 196.869C65.8179 196.453 65.3121 195.775 65.1116 194.986C64.9111 194.196 65.0323 193.36 65.4486 192.66C65.8648 191.96 66.5419 191.454 67.3311 191.253L134.603 174.154C135.392 173.954 136.228 174.075 136.928 174.491C137.628 174.908 138.134 175.585 138.334 176.375C138.535 177.164 138.413 178.001 137.997 178.701C137.581 179.401 136.904 179.907 136.115 180.108Z" fill="#E6E6E6"/>
<path d="M58.4611 205.588L29.0793 213.056C28.4382 213.218 27.759 213.119 27.1906 212.781C26.6223 212.443 26.2112 211.893 26.0476 211.252L20.2837 188.556C20.1216 187.914 20.2204 187.235 20.5585 186.666C20.8965 186.097 21.4462 185.686 22.087 185.523L51.4688 178.055C52.1099 177.893 52.7891 177.992 53.3575 178.33C53.9258 178.668 54.3369 179.218 54.5005 179.859L60.2644 202.555C60.4265 203.197 60.3277 203.876 59.9896 204.445C59.6516 205.013 59.1018 205.424 58.4611 205.588Z" fill="#E6E6E6"/>
<path d="M70.7517 240.995C71.1254 241.641 71.6227 242.207 72.2151 242.66C72.8076 243.114 73.4836 243.446 74.2045 243.638C74.9254 243.829 75.6771 243.877 76.4164 243.778C77.1558 243.679 77.8684 243.435 78.5135 243.061C79.1586 242.686 79.7235 242.187 80.1759 241.594C80.6283 241.001 80.9593 240.324 81.15 239.602C81.3407 238.881 81.3873 238.129 81.2873 237.389C81.1872 236.65 80.9424 235.937 80.5668 235.293C80.4081 235.027 80.2295 234.773 80.0323 234.534L84.8063 200.494L84.9493 199.474L85.919 192.528L86.062 191.527L85.5336 191.551L76.2842 191.974L73.8039 192.086L73.4931 198.423L71.7339 234.049C70.8148 234.929 70.2182 236.092 70.04 237.352C69.8619 238.612 70.1125 239.895 70.7517 240.995Z" fill="#FFB8B8"/>
<path d="M84.9218 199.784L73.1769 198.706C72.5677 198.648 72.006 198.352 71.6143 197.882C71.2225 197.411 71.0325 196.805 71.0857 196.195L73.2642 171.761C73.3698 170.575 73.7122 169.421 74.2713 168.369C74.8304 167.317 75.5947 166.388 76.5191 165.637C77.4435 164.886 78.5091 164.327 79.6529 163.995C80.7967 163.663 81.9954 163.564 83.1782 163.704C84.3609 163.844 85.5037 164.219 86.5387 164.809C87.5738 165.398 88.4802 166.189 89.2044 167.135C89.9285 168.081 90.4555 169.162 90.7544 170.316C91.0533 171.469 91.1179 172.671 90.9443 173.849L87.4226 197.816C87.3417 198.365 87.0664 198.866 86.6467 199.229C86.227 199.593 85.6909 199.793 85.1361 199.793C85.0652 199.793 84.9936 199.79 84.9218 199.784Z" fill="#4FBDBA"/>
<path d="M76.0209 180.043C74.833 176.677 74.778 173.014 75.8641 169.614C76.9503 166.213 79.1181 163.262 82.0371 161.208C86.466 158.177 92.5267 157.088 99.0535 164.862C112.107 180.408 115.526 197.509 115.526 197.509L88.7971 201.862C88.7971 201.862 79.7062 190.746 76.0209 180.043Z" fill="#4FBDBA"/>
<path d="M119.25 355.161L126.871 355.16L130.496 325.754L119.249 325.755L119.25 355.161Z" fill="#FFB8B8"/>
<path d="M141.568 362.239L117.618 362.24L117.617 352.982L132.314 352.982C133.529 352.982 134.733 353.221 135.855 353.686C136.978 354.151 137.998 354.833 138.858 355.693C139.717 356.552 140.399 357.573 140.864 358.696C141.329 359.819 141.568 361.023 141.568 362.239Z" fill="#2F2E41"/>
<path d="M56.5964 348.511L63.8319 350.904L76.5002 324.122L65.821 320.591L56.5964 348.511Z" fill="#FFB8B8"/>
<path d="M75.5659 362.24L52.8251 354.72L55.7292 345.931L69.6838 350.545C72.014 351.316 73.9429 352.981 75.046 355.174C76.1491 357.367 76.3361 359.909 75.5659 362.24L75.5659 362.24Z" fill="#2F2E41"/>
<path d="M92.7982 153.498C101.23 153.498 108.065 146.66 108.065 138.225C108.065 129.79 101.23 122.951 92.7982 122.951C84.3664 122.951 77.531 129.79 77.531 138.225C77.531 146.66 84.3664 153.498 92.7982 153.498Z" fill="#FFB8B8"/>
<path d="M106.166 346.974L99.0885 300.245C99.013 299.747 98.7667 299.289 98.3916 298.952C98.0166 298.615 97.5361 298.419 97.0324 298.397C96.5286 298.375 96.0329 298.528 95.6299 298.832C95.2269 299.135 94.9417 299.569 94.823 300.059L84.0457 344.591C83.8759 345.273 83.4574 345.867 82.8722 346.257C82.2871 346.646 81.5777 346.803 80.8831 346.696L51.1549 341.916C50.7607 341.853 50.3847 341.706 50.052 341.485C49.7194 341.264 49.4378 340.975 49.2262 340.636C49.0147 340.297 48.8781 339.917 48.8256 339.521C48.7731 339.125 48.8059 338.723 48.9218 338.34L87.6855 210.49C87.7956 210.126 87.8087 209.74 87.7234 209.37L86.4327 203.775C86.291 203.168 86.3564 202.532 86.6185 201.966C86.8806 201.401 87.3244 200.94 87.879 200.657C93.1574 197.963 106.524 192.361 116.616 198.497C116.944 198.697 117.227 198.961 117.45 199.274C117.672 199.587 117.828 199.942 117.909 200.317L148.191 342.7C148.273 343.087 148.273 343.488 148.189 343.874C148.105 344.261 147.941 344.626 147.706 344.945C147.471 345.263 147.171 345.528 146.826 345.722C146.481 345.916 146.099 346.035 145.705 346.07L109.181 349.342C109.097 349.349 109.013 349.353 108.93 349.353C108.262 349.352 107.615 349.111 107.108 348.675C106.601 348.239 106.267 347.635 106.166 346.974Z" fill="#2F2E41"/>
<path d="M82.6746 127.434C83.8255 126.741 84.8469 125.853 85.6928 124.81C86.1099 124.283 86.3844 123.657 86.49 122.993C86.5955 122.329 86.5285 121.649 86.2955 121.018C85.5241 119.316 83.2319 118.777 81.4559 119.357C79.68 119.937 78.3078 121.329 77.0098 122.674C75.8664 123.858 74.6904 125.094 74.1481 126.648C73.6057 128.203 73.8843 130.173 75.2333 131.116C76.5571 132.042 78.4604 131.663 79.7337 130.669C81.0069 129.675 81.7951 128.2 82.5466 126.77L82.6746 127.434Z" fill="#2F2E41"/>
<path d="M77.5038 123.082C77.4192 118.778 72.5158 115.693 68.2813 116.455C64.0467 117.218 60.7917 120.83 59.1623 124.814C55.7198 133.231 58.3041 142.835 61.6211 151.302C64.9381 159.769 69.0428 168.365 68.559 177.446C68.232 182.355 66.5857 187.085 63.7941 191.135C61.0024 195.186 57.1691 198.407 52.699 200.458C57.4781 202.625 63.1905 200.386 67.2065 197.008C76.1253 189.505 79.5679 176.147 75.3874 165.266C73.3254 159.898 69.6916 155.307 66.8547 150.306C64.0177 145.306 61.9362 139.413 63.4009 133.853C64.8656 128.293 71.0989 123.789 76.428 125.943L77.5038 123.082Z" fill="#2F2E41"/>
<path d="M93.7137 145.002C92.383 142.752 91.0393 139.798 93.4725 137.832C94.0015 137.424 94.6067 137.125 95.2526 136.954C95.8985 136.784 96.572 136.744 97.2335 136.837C99.9762 137.168 102.963 137.304 105.617 136.307C106.613 135.964 107.53 135.425 108.313 134.721C109.096 134.017 109.73 133.163 110.177 132.209C111.547 128.96 109.831 125.013 106.966 122.959C105.213 121.749 103.142 121.083 101.012 121.045C98.8829 121.007 96.7896 121.6 94.9951 122.747C91.2843 121.108 86.7818 121.837 83.4105 124.094C80.0393 126.351 77.7324 129.966 76.4792 133.826C75.3248 137.148 75.126 140.728 75.9055 144.158C76.5328 146.544 77.7257 148.743 79.383 150.571C81.0404 152.398 83.1134 153.798 85.4266 154.654C86.3277 155.009 87.3063 155.121 88.2644 154.979C89.2225 154.837 90.1265 154.445 90.8856 153.843C90.8856 153.843 92.9899 152.006 93.6483 149.793C94.1541 148.093 94.4248 146.204 93.7137 145.002Z" fill="#2F2E41"/>
<path d="M295.73 363H34.0352C33.8703 363 33.7122 362.935 33.5956 362.818C33.4791 362.701 33.4136 362.543 33.4136 362.378C33.4136 362.213 33.4791 362.055 33.5956 361.938C33.7122 361.822 33.8703 361.756 34.0352 361.756H295.73C295.895 361.756 296.053 361.822 296.17 361.938C296.286 362.055 296.352 362.213 296.352 362.378C296.352 362.543 296.286 362.701 296.17 362.818C296.053 362.935 295.895 363 295.73 363Z" fill="#CCCCCC"/>
<path d="M139.005 158.631C138.929 158.966 138.879 159.307 138.856 159.651L112.154 175.061L105.664 171.323L98.7444 180.385L109.592 188.119C110.468 188.744 111.523 189.068 112.599 189.042C113.675 189.015 114.713 188.641 115.558 187.974L143.093 166.243C144.335 166.703 145.689 166.774 146.972 166.446C148.256 166.118 149.41 165.407 150.28 164.407C151.15 163.407 151.695 162.166 151.842 160.848C151.99 159.531 151.733 158.2 151.106 157.032C150.479 155.864 149.511 154.915 148.332 154.311C147.153 153.707 145.817 153.476 144.504 153.65C143.19 153.823 141.96 154.393 140.978 155.282C139.996 156.172 139.308 157.34 139.005 158.631V158.631Z" fill="#FFB8B8"/>
<path d="M111.261 175.791L102.631 186.981C102.386 187.299 102.074 187.561 101.718 187.748C101.363 187.935 100.971 188.043 100.569 188.065C100.168 188.087 99.7667 188.023 99.3926 187.875C99.0186 187.728 98.6806 187.502 98.4017 187.212L88.6318 177.063C87.0097 175.797 85.9556 173.94 85.7009 171.897C85.4462 169.855 86.0116 167.795 87.273 166.17C88.5345 164.544 90.389 163.485 92.4298 163.226C94.4706 162.966 96.5309 163.527 98.1589 164.785L110.413 171.64C110.763 171.836 111.068 172.106 111.305 172.43C111.542 172.755 111.707 173.127 111.787 173.521C111.868 173.915 111.862 174.322 111.772 174.713C111.681 175.105 111.507 175.473 111.261 175.791H111.261Z" fill="#4FBDBA"/>
<path d="M194.999 363C194.834 363 194.676 362.934 194.559 362.818C194.442 362.701 194.377 362.543 194.377 362.378V350.252C194.377 350.087 194.442 349.929 194.559 349.812C194.676 349.696 194.834 349.63 194.999 349.63C195.163 349.63 195.322 349.696 195.438 349.812C195.555 349.929 195.62 350.087 195.62 350.252V362.378C195.62 362.543 195.555 362.701 195.438 362.818C195.322 362.934 195.163 363 194.999 363Z" fill="#CCCCCC"/>
<path d="M194.998 357.589C194.85 357.59 194.706 357.536 194.594 357.439L187.135 351.035C187.072 350.982 187.021 350.917 186.983 350.844C186.946 350.771 186.923 350.691 186.917 350.61C186.911 350.528 186.92 350.446 186.946 350.368C186.971 350.29 187.012 350.218 187.065 350.156C187.118 350.093 187.183 350.042 187.257 350.005C187.33 349.968 187.409 349.946 187.491 349.94C187.573 349.934 187.655 349.945 187.733 349.97C187.81 349.996 187.882 350.037 187.944 350.091L195.403 356.496C195.5 356.578 195.569 356.689 195.6 356.812C195.632 356.935 195.626 357.065 195.581 357.184C195.537 357.303 195.458 357.406 195.353 357.478C195.249 357.551 195.125 357.589 194.998 357.589H194.998Z" fill="#CCCCCC"/>
<path d="M226.079 361.756C226.079 355.654 228.502 349.802 232.815 345.487C237.128 341.172 242.978 338.748 249.078 338.748C255.178 338.748 261.028 341.172 265.341 345.487C269.654 349.802 272.077 355.654 272.077 361.756" fill="#F2F2F2"/>
<path d="M249.078 363C248.913 363 248.755 362.934 248.638 362.818C248.522 362.701 248.456 362.543 248.456 362.378V350.252C248.456 350.087 248.522 349.929 248.638 349.812C248.755 349.696 248.913 349.63 249.078 349.63C249.243 349.63 249.401 349.696 249.517 349.812C249.634 349.929 249.699 350.087 249.699 350.252V362.378C249.699 362.543 249.634 362.701 249.517 362.818C249.401 362.934 249.243 363 249.078 363Z" fill="#CCCCCC"/>
<path d="M249.078 357.589C248.929 357.59 248.786 357.536 248.673 357.439L241.214 351.035C241.089 350.927 241.011 350.775 240.999 350.61C240.986 350.446 241.04 350.283 241.147 350.158C241.254 350.033 241.407 349.955 241.571 349.943C241.736 349.93 241.898 349.984 242.024 350.091L249.483 356.496C249.579 356.578 249.648 356.689 249.68 356.812C249.712 356.935 249.705 357.065 249.661 357.184C249.617 357.303 249.537 357.406 249.433 357.478C249.329 357.551 249.205 357.589 249.078 357.589Z" fill="#CCCCCC"/>
</g>
<defs>
<clipPath id="clip0_17_303">
<rect width="652" height="363" fill="white"/>
</clipPath>
</defs>
</svg>
