<svg width="650" height="473" viewBox="0 0 650 473" fill="none" xmlns="http://www.w3.org/2000/svg">
<g clip-path="url(#clip0_17_141)">
<path d="M378.624 83.3843C390.806 83.3843 400.682 73.5035 400.682 61.3148C400.682 49.1262 390.806 39.2453 378.624 39.2453C366.442 39.2453 356.566 49.1262 356.566 61.3148C356.566 73.5035 366.442 83.3843 378.624 83.3843Z" fill="#F2F2F2"/>
<path d="M549.733 410.921C582.519 385.935 598.179 343.949 588.375 303.897C588.132 302.902 587.875 301.909 587.604 300.919C581.105 277.144 565.025 254.549 541.59 246.952C521.912 240.574 500.433 245.479 479.905 242.942C439.606 237.963 408.363 205.339 386.38 171.182C364.396 137.024 347.501 98.7896 318.29 70.5705C270.141 24.056 191.596 14.0414 131.898 44.3189C72.1992 74.5964 34.1718 141.769 35.7936 208.716C37.4154 275.662 77.1373 339.668 134.823 373.627C156.015 386.102 180.525 394.94 204.917 391.847C226.083 389.164 245.314 377.785 266.379 374.407C299.499 369.096 332.407 384.078 361.053 401.538C389.699 418.997 417.369 439.691 449.922 447.785C481.53 455.644 520.689 433.055 549.733 410.921Z" fill="#F2F2F2"/>
<path d="M502.627 45.7247C501.908 45.2453 501.181 44.7907 500.463 44.3278C479.687 31.0334 457.418 20.2331 434.118 12.1502L428.715 86.7216H394.464V1.2645C392.308 0.818162 390.136 0.396622 387.963 -0.00012207V86.7216H347.26C324.853 86.7216 303.364 77.8156 287.52 61.9629C271.675 46.1103 262.774 24.6094 262.774 2.19033V2.19026C260.593 2.66139 258.429 3.16559 256.264 3.70285V86.7216H223.113L217.966 15.6134C194.021 24.8016 171.288 36.8845 150.274 51.5932C149.911 51.8412 149.547 52.0974 149.192 52.3453C147.367 53.6265 145.566 54.9325 143.773 56.2549V340.745H241.477L239.75 316.817L230.25 185.437H421.569L412.069 316.817L410.342 340.745H506.964V48.6011C505.527 47.6258 504.081 46.667 502.627 45.7247ZM256.264 163.74H228.681L223.583 93.2348H256.264V163.74ZM387.963 163.74H341.635V162.343C341.635 161.671 341.502 161.006 341.245 160.386C340.988 159.766 340.611 159.202 340.136 158.728C339.661 158.253 339.098 157.877 338.477 157.621C337.857 157.365 337.192 157.233 336.521 157.235H316.38C315.71 157.234 315.046 157.366 314.426 157.623C313.807 157.88 313.244 158.256 312.77 158.73C312.296 159.205 311.92 159.768 311.663 160.388C311.407 161.007 311.275 161.672 311.275 162.343V163.74H262.774V93.2348H387.963V163.74ZM394.464 163.74V93.2348H428.244L423.147 163.74H394.464Z" fill="#3F3D56"/>
<path d="M0 358.963C7.17663 367.471 14.939 375.467 23.2302 382.892L626.77 383.718C635.061 376.294 642.823 368.298 650 359.79L0 358.963Z" fill="#3F3D56"/>
<path d="M409.28 282.342V353.181C409.28 354.084 409.639 354.949 410.277 355.588C410.915 356.226 411.78 356.585 412.683 356.586H517.602C518.505 356.585 519.37 356.226 520.008 355.588C520.646 354.949 521.004 354.084 521.005 353.181V282.342C521.003 281.441 520.644 280.576 520.006 279.939C519.368 279.301 518.504 278.943 517.602 278.942H412.683C411.781 278.943 410.917 279.301 410.279 279.939C409.641 280.576 409.282 281.441 409.28 282.342Z" fill="#3F3D56"/>
<path d="M411.741 283.224V352.307C411.742 352.79 411.934 353.252 412.275 353.593C412.615 353.934 413.078 354.126 413.56 354.127H516.729C517.211 354.126 517.673 353.934 518.014 353.593C518.355 353.252 518.547 352.79 518.547 352.307V283.224C518.547 282.741 518.356 282.278 518.015 281.936C517.674 281.594 517.211 281.402 516.729 281.401H413.56C413.077 281.402 412.614 281.594 412.273 281.936C411.933 282.278 411.741 282.741 411.741 283.224Z" fill="#4FBDBA"/>
<path d="M407.085 366.997C407.278 367.238 407.522 367.432 407.8 367.565C408.078 367.698 408.383 367.767 408.691 367.765H521.035C521.343 367.765 521.646 367.696 521.923 367.563C522.2 367.431 522.445 367.238 522.638 367C522.832 366.761 522.97 366.482 523.042 366.183C523.114 365.884 523.119 365.573 523.056 365.272L521.312 356.984C521.24 356.647 521.084 356.332 520.859 356.07C520.635 355.807 520.348 355.605 520.025 355.482C519.791 355.39 519.542 355.343 519.291 355.344H410.428C410.177 355.343 409.928 355.39 409.694 355.482C409.372 355.605 409.085 355.807 408.86 356.07C408.635 356.332 408.479 356.647 408.407 356.984L406.663 365.272C406.601 365.573 406.607 365.884 406.68 366.182C406.753 366.48 406.891 366.759 407.085 366.997Z" fill="#2F2E41"/>
<path d="M515.437 358.913H518.09C518.313 358.913 518.493 358.733 518.493 358.51V357.24C518.493 357.017 518.313 356.836 518.09 356.836H515.437C515.214 356.836 515.033 357.017 515.033 357.24V358.51C515.033 358.733 515.214 358.913 515.437 358.913Z" fill="#3F3D56"/>
<path d="M508.516 358.913H511.17C511.393 358.913 511.573 358.733 511.573 358.51V357.24C511.573 357.017 511.393 356.836 511.17 356.836H508.516C508.294 356.836 508.113 357.017 508.113 357.24V358.51C508.113 358.733 508.294 358.913 508.516 358.913Z" fill="#3F3D56"/>
<path d="M501.596 358.913H504.25C504.472 358.913 504.653 358.733 504.653 358.51V357.24C504.653 357.017 504.472 356.836 504.25 356.836H501.596C501.373 356.836 501.193 357.017 501.193 357.24V358.51C501.193 358.733 501.373 358.913 501.596 358.913Z" fill="#3F3D56"/>
<path d="M494.676 358.913H497.329C497.552 358.913 497.732 358.733 497.732 358.51V357.24C497.732 357.017 497.552 356.836 497.329 356.836H494.676C494.453 356.836 494.272 357.017 494.272 357.24V358.51C494.272 358.733 494.453 358.913 494.676 358.913Z" fill="#3F3D56"/>
<path d="M487.755 358.913H490.409C490.632 358.913 490.812 358.733 490.812 358.51V357.24C490.812 357.017 490.632 356.836 490.409 356.836H487.755C487.533 356.836 487.352 357.017 487.352 357.24V358.51C487.352 358.733 487.533 358.913 487.755 358.913Z" fill="#3F3D56"/>
<path d="M480.835 358.913H483.489C483.711 358.913 483.892 358.733 483.892 358.51V357.24C483.892 357.017 483.711 356.836 483.489 356.836H480.835C480.612 356.836 480.432 357.017 480.432 357.24V358.51C480.432 358.733 480.612 358.913 480.835 358.913Z" fill="#3F3D56"/>
<path d="M473.915 358.913H476.568C476.791 358.913 476.972 358.733 476.972 358.51V357.24C476.972 357.017 476.791 356.836 476.568 356.836H473.915C473.692 356.836 473.512 357.017 473.512 357.24V358.51C473.512 358.733 473.692 358.913 473.915 358.913Z" fill="#3F3D56"/>
<path d="M466.994 358.913H469.648C469.871 358.913 470.051 358.733 470.051 358.51V357.24C470.051 357.017 469.871 356.836 469.648 356.836H466.994C466.772 356.836 466.591 357.017 466.591 357.24V358.51C466.591 358.733 466.772 358.913 466.994 358.913Z" fill="#3F3D56"/>
<path d="M460.074 358.913H462.728C462.95 358.913 463.131 358.733 463.131 358.51V357.24C463.131 357.017 462.95 356.836 462.728 356.836H460.074C459.851 356.836 459.671 357.017 459.671 357.24V358.51C459.671 358.733 459.851 358.913 460.074 358.913Z" fill="#3F3D56"/>
<path d="M453.154 358.913H455.807C456.03 358.913 456.211 358.733 456.211 358.51V357.24C456.211 357.017 456.03 356.836 455.807 356.836H453.154C452.931 356.836 452.751 357.017 452.751 357.24V358.51C452.751 358.733 452.931 358.913 453.154 358.913Z" fill="#3F3D56"/>
<path d="M446.233 358.913H448.887C449.11 358.913 449.29 358.733 449.29 358.51V357.24C449.29 357.017 449.11 356.836 448.887 356.836H446.233C446.011 356.836 445.83 357.017 445.83 357.24V358.51C445.83 358.733 446.011 358.913 446.233 358.913Z" fill="#3F3D56"/>
<path d="M439.313 358.913H441.967C442.19 358.913 442.37 358.733 442.37 358.51V357.24C442.37 357.017 442.19 356.836 441.967 356.836H439.313C439.091 356.836 438.91 357.017 438.91 357.24V358.51C438.91 358.733 439.091 358.913 439.313 358.913Z" fill="#3F3D56"/>
<path d="M432.393 358.913H435.046C435.269 358.913 435.45 358.733 435.45 358.51V357.24C435.45 357.017 435.269 356.836 435.046 356.836H432.393C432.17 356.836 431.99 357.017 431.99 357.24V358.51C431.99 358.733 432.17 358.913 432.393 358.913Z" fill="#3F3D56"/>
<path d="M425.472 358.913H428.126C428.349 358.913 428.529 358.733 428.529 358.51V357.24C428.529 357.017 428.349 356.836 428.126 356.836H425.472C425.25 356.836 425.069 357.017 425.069 357.24V358.51C425.069 358.733 425.25 358.913 425.472 358.913Z" fill="#3F3D56"/>
<path d="M418.552 358.913H421.206C421.429 358.913 421.609 358.733 421.609 358.51V357.24C421.609 357.017 421.429 356.836 421.206 356.836H418.552C418.33 356.836 418.149 357.017 418.149 357.24V358.51C418.149 358.733 418.33 358.913 418.552 358.913Z" fill="#3F3D56"/>
<path d="M411.632 358.913H414.285C414.508 358.913 414.689 358.733 414.689 358.51V357.24C414.689 357.017 414.508 356.836 414.285 356.836H411.632C411.409 356.836 411.229 357.017 411.229 357.24V358.51C411.229 358.733 411.409 358.913 411.632 358.913Z" fill="#3F3D56"/>
<path d="M515.518 362.375H518.172C518.395 362.375 518.575 362.195 518.575 361.972V360.702C518.575 360.479 518.395 360.298 518.172 360.298H515.518C515.296 360.298 515.115 360.479 515.115 360.702V361.972C515.115 362.195 515.296 362.375 515.518 362.375Z" fill="#3F3D56"/>
<path d="M508.598 362.375H511.252C511.474 362.375 511.655 362.195 511.655 361.972V360.702C511.655 360.479 511.474 360.298 511.252 360.298H508.598C508.375 360.298 508.195 360.479 508.195 360.702V361.972C508.195 362.195 508.375 362.375 508.598 362.375Z" fill="#3F3D56"/>
<path d="M501.678 362.375H504.331C504.554 362.375 504.735 362.195 504.735 361.972V360.702C504.735 360.479 504.554 360.298 504.331 360.298H501.678C501.455 360.298 501.274 360.479 501.274 360.702V361.972C501.274 362.195 501.455 362.375 501.678 362.375Z" fill="#3F3D56"/>
<path d="M494.757 362.375H497.411C497.634 362.375 497.814 362.195 497.814 361.972V360.702C497.814 360.479 497.634 360.298 497.411 360.298H494.757C494.535 360.298 494.354 360.479 494.354 360.702V361.972C494.354 362.195 494.535 362.375 494.757 362.375Z" fill="#3F3D56"/>
<path d="M487.837 362.375H490.491C490.714 362.375 490.894 362.195 490.894 361.972V360.702C490.894 360.479 490.714 360.298 490.491 360.298H487.837C487.614 360.298 487.434 360.479 487.434 360.702V361.972C487.434 362.195 487.614 362.375 487.837 362.375Z" fill="#3F3D56"/>
<path d="M480.917 362.375H483.57C483.793 362.375 483.974 362.195 483.974 361.972V360.702C483.974 360.479 483.793 360.298 483.57 360.298H480.917C480.694 360.298 480.513 360.479 480.513 360.702V361.972C480.513 362.195 480.694 362.375 480.917 362.375Z" fill="#3F3D56"/>
<path d="M473.996 362.375H476.65C476.873 362.375 477.053 362.195 477.053 361.972V360.702C477.053 360.479 476.873 360.298 476.65 360.298H473.996C473.774 360.298 473.593 360.479 473.593 360.702V361.972C473.593 362.195 473.774 362.375 473.996 362.375Z" fill="#3F3D56"/>
<path d="M467.076 362.375H469.73C469.952 362.375 470.133 362.195 470.133 361.972V360.702C470.133 360.479 469.952 360.298 469.73 360.298H467.076C466.853 360.298 466.673 360.479 466.673 360.702V361.972C466.673 362.195 466.853 362.375 467.076 362.375Z" fill="#3F3D56"/>
<path d="M460.156 362.375H462.809C463.032 362.375 463.213 362.195 463.213 361.972V360.702C463.213 360.479 463.032 360.298 462.809 360.298H460.156C459.933 360.298 459.753 360.479 459.753 360.702V361.972C459.753 362.195 459.933 362.375 460.156 362.375Z" fill="#3F3D56"/>
<path d="M453.236 362.375H455.889C456.112 362.375 456.292 362.195 456.292 361.972V360.702C456.292 360.479 456.112 360.298 455.889 360.298H453.236C453.013 360.298 452.832 360.479 452.832 360.702V361.972C452.832 362.195 453.013 362.375 453.236 362.375Z" fill="#3F3D56"/>
<path d="M446.315 362.375H448.969C449.192 362.375 449.372 362.195 449.372 361.972V360.702C449.372 360.479 449.192 360.298 448.969 360.298H446.315C446.093 360.298 445.912 360.479 445.912 360.702V361.972C445.912 362.195 446.093 362.375 446.315 362.375Z" fill="#3F3D56"/>
<path d="M439.395 362.375H442.049C442.271 362.375 442.452 362.195 442.452 361.972V360.702C442.452 360.479 442.271 360.298 442.049 360.298H439.395C439.172 360.298 438.992 360.479 438.992 360.702V361.972C438.992 362.195 439.172 362.375 439.395 362.375Z" fill="#3F3D56"/>
<path d="M432.475 362.375H435.128C435.351 362.375 435.531 362.195 435.531 361.972V360.702C435.531 360.479 435.351 360.298 435.128 360.298H432.475C432.252 360.298 432.071 360.479 432.071 360.702V361.972C432.071 362.195 432.252 362.375 432.475 362.375Z" fill="#3F3D56"/>
<path d="M425.554 362.375H428.208C428.431 362.375 428.611 362.195 428.611 361.972V360.702C428.611 360.479 428.431 360.298 428.208 360.298H425.554C425.332 360.298 425.151 360.479 425.151 360.702V361.972C425.151 362.195 425.332 362.375 425.554 362.375Z" fill="#3F3D56"/>
<path d="M418.634 362.375H421.288C421.51 362.375 421.691 362.195 421.691 361.972V360.702C421.691 360.479 421.51 360.298 421.288 360.298H418.634C418.411 360.298 418.231 360.479 418.231 360.702V361.972C418.231 362.195 418.411 362.375 418.634 362.375Z" fill="#3F3D56"/>
<path d="M411.714 362.375H414.367C414.59 362.375 414.771 362.195 414.771 361.972V360.702C414.771 360.479 414.59 360.298 414.367 360.298H411.714C411.491 360.298 411.31 360.479 411.31 360.702V361.972C411.31 362.195 411.491 362.375 411.714 362.375Z" fill="#3F3D56"/>
<path d="M458.08 366.53H484.954C485.177 366.53 485.358 366.349 485.358 366.126V364.856C485.358 364.633 485.177 364.453 484.954 364.453H458.08C457.857 364.453 457.676 364.633 457.676 364.856V366.126C457.676 366.349 457.857 366.53 458.08 366.53Z" fill="#3F3D56"/>
<path d="M429.607 296.514H427.258C426.545 296.514 425.968 297.092 425.968 297.805C425.968 298.517 426.545 299.095 427.258 299.095H429.607C430.319 299.095 430.897 298.517 430.897 297.805C430.897 297.092 430.319 296.514 429.607 296.514Z" fill="white"/>
<path d="M456.475 296.514H454.125C453.413 296.514 452.836 297.092 452.836 297.805C452.836 298.517 453.413 299.095 454.125 299.095H456.475C457.187 299.095 457.764 298.517 457.764 297.805C457.764 297.092 457.187 296.514 456.475 296.514Z" fill="white"/>
<path d="M464.087 296.514H461.738C461.026 296.514 460.448 297.092 460.448 297.805C460.448 298.517 461.026 299.095 461.738 299.095H464.087C464.799 299.095 465.377 298.517 465.377 297.805C465.377 297.092 464.799 296.514 464.087 296.514Z" fill="white"/>
<path d="M449.166 296.299H434.566C433.854 296.299 433.276 296.877 433.276 297.589C433.276 298.302 433.854 298.88 434.566 298.88H449.166C449.879 298.88 450.456 298.302 450.456 297.589C450.456 296.877 449.879 296.299 449.166 296.299Z" fill="white"/>
<path d="M484.99 296.299H470.389C469.677 296.299 469.1 296.877 469.1 297.589C469.1 298.302 469.677 298.88 470.389 298.88H484.99C485.702 298.88 486.28 298.302 486.28 297.589C486.28 296.877 485.702 296.299 484.99 296.299Z" fill="white"/>
<path d="M436.772 302.339H434.422C433.71 302.339 433.133 302.916 433.133 303.629C433.133 304.342 433.71 304.919 434.422 304.919H436.772C437.484 304.919 438.061 304.342 438.061 303.629C438.061 302.916 437.484 302.339 436.772 302.339Z" fill="white"/>
<path d="M463.639 302.339H461.29C460.578 302.339 460 302.916 460 303.629C460 304.342 460.578 304.919 461.29 304.919H463.639C464.352 304.919 464.929 304.342 464.929 303.629C464.929 302.916 464.352 302.339 463.639 302.339Z" fill="white"/>
<path d="M471.252 302.339H468.902C468.19 302.339 467.613 302.916 467.613 303.629C467.613 304.342 468.19 304.919 468.902 304.919H471.252C471.964 304.919 472.541 304.342 472.541 303.629C472.541 302.916 471.964 302.339 471.252 302.339Z" fill="white"/>
<path d="M456.331 302.124H441.731C441.018 302.124 440.441 302.701 440.441 303.414C440.441 304.126 441.018 304.704 441.731 304.704H456.331C457.043 304.704 457.621 304.126 457.621 303.414C457.621 302.701 457.043 302.124 456.331 302.124Z" fill="white"/>
<path d="M492.154 302.124H477.554C476.842 302.124 476.264 302.701 476.264 303.414C476.264 304.126 476.842 304.704 477.554 304.704H492.154C492.867 304.704 493.444 304.126 493.444 303.414C493.444 302.701 492.867 302.124 492.154 302.124Z" fill="white"/>
<path d="M443.936 308.163H441.587C440.875 308.163 440.297 308.741 440.297 309.453C440.297 310.166 440.875 310.744 441.587 310.744H443.936C444.648 310.744 445.226 310.166 445.226 309.453C445.226 308.741 444.648 308.163 443.936 308.163Z" fill="white"/>
<path d="M470.804 308.163H468.455C467.742 308.163 467.165 308.741 467.165 309.453C467.165 310.166 467.742 310.744 468.455 310.744H470.804C471.516 310.744 472.093 310.166 472.093 309.453C472.093 308.741 471.516 308.163 470.804 308.163Z" fill="white"/>
<path d="M478.416 308.163H476.067C475.355 308.163 474.778 308.741 474.778 309.453C474.778 310.166 475.355 310.744 476.067 310.744H478.416C479.129 310.744 479.706 310.166 479.706 309.453C479.706 308.741 479.129 308.163 478.416 308.163Z" fill="white"/>
<path d="M463.496 307.948H448.895C448.183 307.948 447.605 308.526 447.605 309.238C447.605 309.951 448.183 310.529 448.895 310.529H463.496C464.208 310.529 464.785 309.951 464.785 309.238C464.785 308.526 464.208 307.948 463.496 307.948Z" fill="white"/>
<path d="M499.319 307.948H484.719C484.006 307.948 483.429 308.526 483.429 309.238C483.429 309.951 484.006 310.529 484.719 310.529H499.319C500.032 310.529 500.609 309.951 500.609 309.238C500.609 308.526 500.032 307.948 499.319 307.948Z" fill="white"/>
<path d="M451.101 313.988H448.752C448.04 313.988 447.462 314.565 447.462 315.278C447.462 315.99 448.04 316.568 448.752 316.568H451.101C451.813 316.568 452.391 315.99 452.391 315.278C452.391 314.565 451.813 313.988 451.101 313.988Z" fill="white"/>
<path d="M477.969 313.988H475.619C474.907 313.988 474.33 314.565 474.33 315.278C474.33 315.99 474.907 316.568 475.619 316.568H477.969C478.681 316.568 479.258 315.99 479.258 315.278C479.258 314.565 478.681 313.988 477.969 313.988Z" fill="white"/>
<path d="M485.581 313.988H483.232C482.52 313.988 481.942 314.565 481.942 315.278C481.942 315.99 482.52 316.568 483.232 316.568H485.581C486.293 316.568 486.871 315.99 486.871 315.278C486.871 314.565 486.293 313.988 485.581 313.988Z" fill="white"/>
<path d="M470.661 313.772H456.06C455.348 313.772 454.77 314.35 454.77 315.063C454.77 315.775 455.348 316.353 456.06 316.353H470.661C471.373 316.353 471.95 315.775 471.95 315.063C471.95 314.35 471.373 313.772 470.661 313.772Z" fill="white"/>
<path d="M456.475 337.148H454.125C453.413 337.148 452.836 337.726 452.836 338.438C452.836 339.151 453.413 339.729 454.125 339.729H456.475C457.187 339.729 457.764 339.151 457.764 338.438C457.764 337.726 457.187 337.148 456.475 337.148Z" fill="white"/>
<path d="M464.087 337.148H461.738C461.026 337.148 460.448 337.726 460.448 338.438C460.448 339.151 461.026 339.729 461.738 339.729H464.087C464.799 339.729 465.377 339.151 465.377 338.438C465.377 337.726 464.799 337.148 464.087 337.148Z" fill="white"/>
<path d="M484.99 337.363H470.389C469.677 337.363 469.1 337.941 469.1 338.653C469.1 339.366 469.677 339.944 470.389 339.944H484.99C485.702 339.944 486.28 339.366 486.28 338.653C486.28 337.941 485.702 337.363 484.99 337.363Z" fill="white"/>
<path d="M429.607 337.148H427.258C426.545 337.148 425.968 337.726 425.968 338.438C425.968 339.151 426.545 339.729 427.258 339.729H429.607C430.319 339.729 430.897 339.151 430.897 338.438C430.897 337.726 430.319 337.148 429.607 337.148Z" fill="white"/>
<path d="M449.166 337.363H434.566C433.854 337.363 433.276 337.941 433.276 338.653C433.276 339.366 433.854 339.944 434.566 339.944H449.166C449.879 339.944 450.456 339.366 450.456 338.653C450.456 337.941 449.879 337.363 449.166 337.363Z" fill="white"/>
<path d="M436.772 331.323H434.422C433.71 331.323 433.133 331.901 433.133 332.614C433.133 333.326 433.71 333.904 434.422 333.904H436.772C437.484 333.904 438.061 333.326 438.061 332.614C438.061 331.901 437.484 331.323 436.772 331.323Z" fill="white"/>
<path d="M463.639 331.323H461.29C460.578 331.323 460 331.901 460 332.614C460 333.326 460.578 333.904 461.29 333.904H463.639C464.352 333.904 464.929 333.326 464.929 332.614C464.929 331.901 464.352 331.323 463.639 331.323Z" fill="white"/>
<path d="M471.252 331.323H468.902C468.19 331.323 467.613 331.901 467.613 332.614C467.613 333.326 468.19 333.904 468.902 333.904H471.252C471.964 333.904 472.541 333.326 472.541 332.614C472.541 331.901 471.964 331.323 471.252 331.323Z" fill="white"/>
<path d="M456.331 331.539H441.731C441.018 331.539 440.441 332.116 440.441 332.829C440.441 333.541 441.018 334.119 441.731 334.119H456.331C457.043 334.119 457.621 333.541 457.621 332.829C457.621 332.116 457.043 331.539 456.331 331.539Z" fill="white"/>
<path d="M443.936 325.499H441.587C440.875 325.499 440.297 326.077 440.297 326.789C440.297 327.502 440.875 328.08 441.587 328.08H443.936C444.648 328.08 445.226 327.502 445.226 326.789C445.226 326.077 444.648 325.499 443.936 325.499Z" fill="white"/>
<path d="M470.804 325.499H468.455C467.742 325.499 467.165 326.077 467.165 326.789C467.165 327.502 467.742 328.08 468.455 328.08H470.804C471.516 328.08 472.093 327.502 472.093 326.789C472.093 326.077 471.516 325.499 470.804 325.499Z" fill="white"/>
<path d="M478.416 325.499H476.067C475.355 325.499 474.778 326.077 474.778 326.789C474.778 327.502 475.355 328.08 476.067 328.08H478.416C479.129 328.08 479.706 327.502 479.706 326.789C479.706 326.077 479.129 325.499 478.416 325.499Z" fill="white"/>
<path d="M463.496 325.714H448.895C448.183 325.714 447.605 326.292 447.605 327.005C447.605 327.717 448.183 328.295 448.895 328.295H463.496C464.208 328.295 464.785 327.717 464.785 327.005C464.785 326.292 464.208 325.714 463.496 325.714Z" fill="white"/>
<path d="M451.101 319.675H448.752C448.04 319.675 447.462 320.252 447.462 320.965C447.462 321.678 448.04 322.255 448.752 322.255H451.101C451.813 322.255 452.391 321.678 452.391 320.965C452.391 320.252 451.813 319.675 451.101 319.675Z" fill="white"/>
<path d="M477.969 319.675H475.619C474.907 319.675 474.33 320.252 474.33 320.965C474.33 321.678 474.907 322.255 475.619 322.255H477.969C478.681 322.255 479.258 321.678 479.258 320.965C479.258 320.252 478.681 319.675 477.969 319.675Z" fill="white"/>
<path d="M485.581 319.675H483.232C482.52 319.675 481.942 320.252 481.942 320.965C481.942 321.678 482.52 322.255 483.232 322.255H485.581C486.293 322.255 486.871 321.678 486.871 320.965C486.871 320.252 486.293 319.675 485.581 319.675Z" fill="white"/>
<path d="M470.661 319.89H456.06C455.348 319.89 454.77 320.467 454.77 321.18C454.77 321.893 455.348 322.47 456.06 322.47H470.661C471.373 322.47 471.95 321.893 471.95 321.18C471.95 320.467 471.373 319.89 470.661 319.89Z" fill="white"/>
<path d="M417.117 405.408L406.089 387.966L440.705 360.357L454.993 344.519C456.849 342.462 459.212 340.928 461.847 340.07C464.481 339.213 467.295 339.062 470.006 339.634C472.716 340.205 475.23 341.478 477.295 343.326C479.36 345.174 480.904 347.531 481.773 350.163C483.061 354.063 482.784 358.312 481.001 362.011C479.218 365.711 476.068 368.573 472.215 369.993L449.622 378.321L417.117 405.408Z" fill="#FFB6B6"/>
<path d="M158.357 278.945V363.716H217.713V278.945C217.714 278.335 217.52 277.741 217.158 277.25C216.797 276.759 216.288 276.397 215.706 276.217C215.431 276.127 215.144 276.082 214.855 276.085H161.224C160.848 276.084 160.475 276.158 160.128 276.301C159.78 276.444 159.464 276.655 159.198 276.921C158.932 277.186 158.72 277.502 158.576 277.849C158.432 278.196 158.357 278.569 158.357 278.945ZM181.521 308.073C181.537 306.401 182.211 304.804 183.398 303.628C184.584 302.451 186.187 301.791 187.857 301.791C189.528 301.791 191.131 302.451 192.317 303.628C193.504 304.804 194.178 306.401 194.194 308.073V317.909C194.185 319.584 193.514 321.189 192.326 322.37C191.139 323.552 189.532 324.216 187.857 324.216C186.182 324.216 184.576 323.552 183.388 322.37C182.201 321.189 181.53 319.584 181.521 317.909V308.073Z" fill="#2F2E41"/>
<path d="M158.175 361.005V369.179C158.177 369.603 158.345 370.009 158.643 370.309C158.942 370.609 159.346 370.779 159.77 370.783H216.3C216.724 370.781 217.13 370.611 217.428 370.31C217.727 370.01 217.895 369.603 217.895 369.179V361.005H158.175Z" fill="#3F3D56"/>
<path d="M64.9817 151.226V306.006C64.9833 307.979 65.7671 309.87 67.1611 311.265C68.5551 312.659 70.4453 313.444 72.4167 313.445H301.662C303.634 313.444 305.524 312.659 306.918 311.265C308.312 309.87 309.096 307.979 309.097 306.006V151.226C309.093 149.256 308.307 147.367 306.914 145.974C305.52 144.582 303.632 143.798 301.662 143.796H72.4167C70.447 143.798 68.5586 144.582 67.165 145.974C65.7715 147.367 64.9864 149.256 64.9817 151.226Z" fill="#3F3D56"/>
<path d="M70.3599 153.152V304.097C70.3617 305.151 70.7809 306.161 71.5257 306.906C72.2705 307.651 73.2801 308.071 74.3335 308.073H299.754C300.807 308.071 301.817 307.651 302.562 306.906C303.307 306.161 303.726 305.151 303.728 304.097V153.152C303.728 152.097 303.309 151.085 302.564 150.338C301.819 149.591 300.809 149.171 299.754 149.168H74.3335C73.2789 149.171 72.2683 149.591 71.5233 150.338C70.7784 151.085 70.36 152.097 70.3599 153.152Z" fill="white"/>
<path d="M112.194 370.229C112.423 370.517 112.715 370.749 113.047 370.908C113.379 371.067 113.743 371.148 114.111 371.147H248.221C248.588 371.146 248.95 371.064 249.281 370.906C249.612 370.748 249.904 370.518 250.135 370.233C250.366 369.948 250.531 369.615 250.617 369.258C250.703 368.902 250.709 368.53 250.634 368.171L248.552 358.277C248.465 357.874 248.28 357.498 248.011 357.185C247.743 356.872 247.401 356.631 247.015 356.484C246.736 356.374 246.439 356.318 246.14 356.318H116.184C115.884 356.318 115.587 356.374 115.308 356.484C114.923 356.631 114.581 356.872 114.312 357.185C114.044 357.498 113.858 357.874 113.772 358.277L111.69 368.171C111.616 368.53 111.623 368.901 111.71 369.257C111.797 369.613 111.962 369.945 112.194 370.229Z" fill="#2F2E41"/>
<path d="M292.439 169.962H81.5132C81.294 169.957 81.0854 169.866 80.932 169.709C80.7787 169.552 80.6929 169.342 80.6929 169.122C80.6929 168.903 80.7787 168.692 80.932 168.535C81.0854 168.378 81.294 168.288 81.5132 168.283H292.439C292.658 168.288 292.866 168.378 293.02 168.535C293.173 168.692 293.259 168.903 293.259 169.122C293.259 169.342 293.173 169.552 293.02 169.709C292.866 169.866 292.658 169.957 292.439 169.962Z" fill="#3F3D56"/>
<path d="M95.8713 163.998C98.5861 163.998 100.787 161.747 100.787 158.97C100.787 156.193 98.5861 153.942 95.8713 153.942C93.1564 153.942 90.9556 156.193 90.9556 158.97C90.9556 161.747 93.1564 163.998 95.8713 163.998Z" fill="#3F3D56"/>
<path d="M112.853 163.998C115.568 163.998 117.768 161.747 117.768 158.97C117.768 156.193 115.568 153.942 112.853 153.942C110.138 153.942 107.937 156.193 107.937 158.97C107.937 161.747 110.138 163.998 112.853 163.998Z" fill="#3F3D56"/>
<path d="M129.834 163.998C132.549 163.998 134.75 161.747 134.75 158.97C134.75 156.193 132.549 153.942 129.834 153.942C127.119 153.942 124.918 156.193 124.918 158.97C124.918 161.747 127.119 163.998 129.834 163.998Z" fill="#3F3D56"/>
<path d="M282.213 155.186H270.152C269.913 155.191 269.686 155.29 269.52 155.46C269.353 155.631 269.26 155.86 269.26 156.099C269.26 156.337 269.353 156.567 269.52 156.737C269.686 156.908 269.913 157.007 270.152 157.012H282.213C282.453 157.009 282.682 156.911 282.85 156.74C283.018 156.569 283.113 156.339 283.113 156.099C283.113 155.859 283.018 155.628 282.85 155.458C282.682 155.287 282.453 155.189 282.213 155.186Z" fill="#3F3D56"/>
<path d="M282.213 158.616H270.151C269.913 158.621 269.686 158.72 269.519 158.89C269.352 159.061 269.259 159.29 269.259 159.529C269.259 159.768 269.352 159.997 269.519 160.168C269.686 160.339 269.913 160.437 270.151 160.442H282.213C282.453 160.44 282.682 160.342 282.851 160.171C283.02 160 283.115 159.769 283.115 159.529C283.115 159.289 283.02 159.058 282.851 158.887C282.682 158.716 282.453 158.619 282.213 158.616Z" fill="#3F3D56"/>
<path d="M282.213 162.046H270.152C269.913 162.051 269.686 162.15 269.52 162.321C269.353 162.491 269.26 162.721 269.26 162.959C269.26 163.198 269.353 163.427 269.52 163.598C269.686 163.768 269.913 163.867 270.152 163.873H282.213C282.453 163.869 282.682 163.771 282.85 163.6C283.018 163.43 283.113 163.199 283.113 162.959C283.113 162.719 283.018 162.489 282.85 162.318C282.682 162.147 282.453 162.049 282.213 162.046Z" fill="#3F3D56"/>
<path d="M572.987 364.593C573.351 365.653 574.041 366.57 574.959 367.214C575.877 367.857 576.974 368.192 578.095 368.172L599.98 367.609C601.108 367.587 602.199 367.2 603.09 366.506C603.98 365.812 604.623 364.849 604.921 363.76L608.018 330.625C609.116 331.123 610.313 331.369 611.519 331.345C612.566 331.319 613.599 331.086 614.557 330.661C615.515 330.235 616.379 329.625 617.102 328.865C617.824 328.105 618.39 327.211 618.766 326.232C619.143 325.253 619.323 324.21 619.297 323.162C619.271 322.113 619.038 321.08 618.613 320.122C618.188 319.163 617.578 318.298 616.819 317.576C616.059 316.853 615.165 316.287 614.187 315.91C613.209 315.533 612.166 315.353 611.118 315.379C610.636 315.377 610.155 315.428 609.684 315.528C609.171 314.973 608.548 314.532 607.854 314.233C607.161 313.933 606.412 313.782 605.657 313.79L571.993 314.66C571.714 314.67 571.436 314.705 571.162 314.763C570.424 314.901 569.724 315.195 569.109 315.626C568.494 316.057 567.978 316.615 567.597 317.263C567.215 317.91 566.977 318.631 566.898 319.378C566.818 320.126 566.9 320.881 567.137 321.594L572.987 364.593ZM608.653 328.376L610.856 320.48C611.107 319.568 611.113 318.606 610.873 317.691C610.98 317.69 611.075 317.64 611.181 317.639C612.693 317.608 614.154 318.178 615.246 319.223C616.338 320.269 616.971 321.705 617.007 323.216C617.042 324.728 616.477 326.192 615.435 327.288C614.393 328.383 612.96 329.02 611.449 329.06C610.472 329.09 609.505 328.854 608.653 328.376Z" fill="#2F2E41"/>
<path d="M571.162 314.763C571.88 318.866 579.943 321.75 589.639 321.249C598.555 320.838 605.845 317.706 607.181 313.993C606.686 313.847 606.172 313.778 605.657 313.79L571.993 314.66C571.713 314.67 571.436 314.705 571.162 314.763Z" fill="#3F3D56"/>
<path d="M591.416 346.385C591.46 346.374 591.502 346.355 591.54 346.33L596.293 343.218C596.351 343.18 596.398 343.129 596.431 343.069C596.463 343.008 596.48 342.941 596.48 342.872C596.48 342.803 596.463 342.736 596.431 342.676C596.398 342.615 596.351 342.564 596.293 342.526L591.354 339.289C591.308 339.259 591.257 339.238 591.204 339.228C591.151 339.218 591.096 339.218 591.043 339.229C590.989 339.24 590.939 339.261 590.894 339.292C590.849 339.322 590.81 339.362 590.78 339.407C590.751 339.453 590.73 339.503 590.72 339.557C590.71 339.61 590.711 339.665 590.722 339.719C590.733 339.772 590.755 339.822 590.785 339.867C590.816 339.912 590.855 339.95 590.901 339.98L595.313 342.871L591.088 345.639C591.007 345.692 590.946 345.773 590.919 345.867C590.891 345.96 590.897 346.061 590.936 346.151C590.975 346.24 591.045 346.313 591.133 346.356C591.221 346.399 591.321 346.409 591.416 346.385H591.416Z" fill="#4FBDBA"/>
<path d="M583.909 346.731C583.989 346.711 584.061 346.668 584.116 346.606C584.171 346.545 584.206 346.468 584.217 346.387C584.228 346.305 584.215 346.222 584.179 346.148C584.142 346.075 584.085 346.013 584.013 345.972L579.633 343.459L583.867 340.312C583.91 340.28 583.947 340.239 583.975 340.193C584.003 340.146 584.021 340.095 584.029 340.041C584.037 339.987 584.034 339.933 584.021 339.88C584.008 339.828 583.984 339.778 583.952 339.735C583.92 339.691 583.879 339.654 583.833 339.626C583.786 339.599 583.735 339.58 583.681 339.572C583.627 339.564 583.573 339.567 583.52 339.58C583.467 339.594 583.418 339.617 583.375 339.649L578.634 343.173C578.579 343.214 578.535 343.267 578.506 343.33C578.477 343.392 578.463 343.46 578.468 343.529C578.472 343.597 578.493 343.664 578.529 343.722C578.565 343.78 578.615 343.829 578.674 343.863L583.602 346.689C583.695 346.743 583.805 346.758 583.909 346.731Z" fill="#4FBDBA"/>
<path d="M590.943 349.113C590.983 349.103 591.021 349.087 591.056 349.065C591.103 349.037 591.143 349 591.175 348.956C591.207 348.912 591.23 348.862 591.243 348.81C591.256 348.757 591.258 348.702 591.25 348.648C591.242 348.595 591.223 348.543 591.195 348.497L584.457 337.414C584.4 337.321 584.308 337.254 584.202 337.228C584.096 337.202 583.983 337.22 583.89 337.277C583.796 337.334 583.729 337.426 583.703 337.532C583.677 337.638 583.695 337.751 583.752 337.844L590.489 348.927C590.535 349.003 590.604 349.061 590.686 349.095C590.767 349.128 590.858 349.134 590.943 349.113Z" fill="#4FBDBA"/>
<path d="M212.178 215.587H175.671C174.182 215.587 172.975 216.795 172.975 218.285V221.853C172.975 223.343 174.182 224.551 175.671 224.551H212.178C213.667 224.551 214.874 223.343 214.874 221.853V218.285C214.874 216.795 213.667 215.587 212.178 215.587Z" fill="#4FBDBA"/>
<path d="M233.457 233.516H154.392C152.903 233.516 151.695 234.724 151.695 236.214V239.782C151.695 241.272 152.903 242.48 154.392 242.48H233.457C234.946 242.48 236.154 241.272 236.154 239.782V236.214C236.154 234.724 234.946 233.516 233.457 233.516Z" fill="#E6E6E6"/>
<path d="M233.457 251.445H154.392C152.903 251.445 151.695 252.653 151.695 254.143V257.711C151.695 259.201 152.903 260.409 154.392 260.409H233.457C234.946 260.409 236.154 259.201 236.154 257.711V254.143C236.154 252.653 234.946 251.445 233.457 251.445Z" fill="#E6E6E6"/>
<path d="M240.159 311.482L240.338 312.048L240.348 312.067L245.738 328.464L251.939 347.36L263.606 382.869L263.719 388.385V388.404L264.586 432.777L262.183 438.793L264.888 448.655C264.888 448.655 263.644 433.747 256.972 442.309C253.193 447.174 248.773 452.152 245.145 456.82C250.432 458.96 255.803 460.896 261.26 462.628C262.438 463.005 263.625 463.364 264.813 463.722C265.067 463.797 265.321 463.873 265.576 463.948C283.663 469.3 302.363 472.307 321.215 472.896C322.195 472.925 323.157 472.943 324.089 472.962C324.419 472.972 324.74 472.981 325.06 472.981C326.116 472.991 327.162 473 328.217 473C330.347 473 332.467 472.969 334.578 472.906C350.203 472.465 365.736 470.363 380.916 466.635C380.812 460.365 380.53 453.039 380.125 445.213C379.936 441.375 375.705 437.217 375.45 433.2C375.271 430.183 379.069 427.345 378.871 424.28C377.589 405.413 375.987 412.655 374.8 399.295C374.677 397.984 374.564 396.73 374.461 395.532C373.697 386.952 373.17 381.587 373.17 381.587L378.24 349.613L386.203 299.413L385.59 298.404L384.903 298.065L342.9 277.264L340.619 271.418C339.955 269.734 338.802 268.287 337.309 267.264C335.816 266.241 334.051 265.688 332.241 265.676L304.572 265.563C303.136 265.556 301.72 265.893 300.44 266.544C299.16 267.195 298.053 268.142 297.212 269.306L289.72 279.687L240.159 311.482Z" fill="#3F3D56"/>
<path d="M269.987 374.968L263.72 388.385L259.441 397.55L252.081 436.106L248.396 440.019L245.239 426.166L212.197 433.507C211.113 427.481 211.906 433.71 211.237 427.101C211.426 426.912 211.624 426.724 211.822 426.535C212.349 426.045 212.792 425.583 212.783 425.14C212.406 402.34 213.537 363.54 222.98 340.033C224.459 336.195 226.409 332.556 228.785 329.199C228.973 328.945 229.152 328.69 229.331 328.435C233.685 322.335 236.437 316.329 240.339 312.057V312.048C240.363 312.028 240.385 312.006 240.405 311.982C240.419 311.975 240.432 311.965 240.442 311.954L267.244 297.735L268.394 330.057L269.214 353.29L269.987 374.968Z" fill="#3F3D56"/>
<path d="M366.629 378.779L374.457 395.537L377.189 401.373L384.547 439.925L388.22 443.828L391.384 429.979L392.871 429.674L419.686 424.118L427.501 448.953C429.263 446.016 429.957 442.561 429.466 439.171C428.975 435.782 427.329 432.666 424.807 430.351C424.273 429.867 423.828 429.397 423.841 428.952C424.286 402.136 422.647 353.171 407.842 333.018C403.139 326.622 400.318 320.252 396.214 315.802C396.201 315.789 396.201 315.776 396.188 315.776L386.199 299.412L385.589 298.407L384.903 298.064L366.629 378.779Z" fill="#3F3D56"/>
<path d="M319.206 257.684C339.536 257.684 356.016 241.195 356.016 220.855C356.016 200.514 339.536 184.025 319.206 184.025C298.876 184.025 282.396 200.514 282.396 220.855C282.396 241.195 298.876 257.684 319.206 257.684Z" fill="#FFB6B6"/>
<path d="M368.959 195.129C368.674 194.824 368.33 194.58 367.948 194.411C367.566 194.242 367.154 194.152 366.737 194.146L367.29 192.608C367.471 192.124 367.52 191.601 367.432 191.091C367.344 190.582 367.122 190.105 366.789 189.71C366.456 189.315 366.024 189.015 365.537 188.842C365.051 188.668 364.527 188.628 364.019 188.724L362.003 189.112L362.193 187.765C362.266 187.263 362.207 186.751 362.022 186.279C361.837 185.807 361.533 185.391 361.139 185.072C360.744 184.754 360.274 184.543 359.774 184.462C359.274 184.38 358.761 184.43 358.286 184.607C357.854 184.777 357.389 184.849 356.926 184.816C356.463 184.783 356.013 184.647 355.609 184.417C355.204 184.195 354.852 183.886 354.578 183.514C354.304 183.141 354.115 182.713 354.023 182.26L353.321 178.871L353.247 178.689C349.826 172.986 343.251 168.837 335.204 167.316C328.042 165.952 320.698 166.646 313.618 167.299C310.809 167.564 307.637 167.861 304.993 169.481C302.746 170.87 300.846 173.647 301.235 176.449C294.254 174.309 286.769 178.582 283.06 183.971C278.665 190.385 277.947 198.419 277.831 204.701C277.517 219.562 280.582 231.721 286.918 240.846C287.381 241.507 287.496 242.887 288.413 243.35L288.223 243.044C289.248 243.557 290.289 244.383 289.9 245.268C288.785 247.814 296.195 253.442 301.416 255.302C310.941 258.699 323.606 258.41 332.511 257.187L332.825 255.079C336.039 254.641 338.302 253.806 338.938 252.5C340.062 251.541 341.02 250.682 341.855 249.888L341.863 249.88C341.879 249.864 341.912 249.839 341.929 249.822C345.952 245.962 346.886 243.764 347.307 240.416C347.712 237.135 346.993 233.804 346.258 230.803C361.739 233.2 340.161 214.305 354.585 210.652C354.75 210.601 354.919 210.56 355.089 210.528C355.51 210.429 355.931 210.33 356.336 210.214C358.287 209.684 360.156 208.886 361.888 207.842C365.919 205.387 367.249 202.13 369.331 198.46C369.631 197.938 369.757 197.333 369.69 196.734C369.624 196.135 369.367 195.573 368.959 195.129Z" fill="#2F2E41"/>
<path d="M449.397 381.401C449.389 382.847 449.373 384.872 449.307 387.377C449.298 387.724 449.29 388.079 449.282 388.443C449.174 393.047 449.067 396.907 448.894 401.197C448.885 401.494 448.877 401.783 448.86 402.081C448.629 408.065 448.266 415.033 447.638 426.068C446.473 446.45 444.441 428.87 442.4 436.019C442.301 436.375 442.194 436.796 442.095 437.292C441.786 439.091 441.264 440.848 440.542 442.524C439.459 443.169 438.344 443.789 437.245 444.409C434.114 446.153 430.934 447.831 427.729 449.426C425.928 450.319 424.119 451.195 422.301 452.038C422.012 452.17 421.731 452.302 421.45 452.426C412.143 456.733 402.552 460.395 392.743 463.386C390.826 463.965 388.918 464.527 386.985 465.048C384.969 465.61 382.953 466.139 380.913 466.635C365.733 470.363 350.201 472.466 334.576 472.908C332.47 472.974 330.347 472.999 328.215 472.999C327.158 472.999 326.117 472.991 325.06 472.983C324.738 472.983 324.415 472.974 324.093 472.966C323.16 472.941 322.193 472.925 321.218 472.9C302.366 472.312 283.666 469.303 265.58 463.948L264.811 463.725C263.622 463.362 262.441 463.006 261.259 462.626C255.807 460.898 250.434 458.964 245.142 456.824C241.102 455.195 237.109 453.448 233.163 451.583C233.127 451.573 233.093 451.557 233.064 451.534C232.238 451.153 231.404 450.757 230.577 450.352C230.47 450.294 230.354 450.236 230.239 450.178C227.157 448.674 224.109 447.098 221.094 445.45C218.558 439.623 214.989 438.507 212.775 433.383C212.13 431.86 211.665 430.268 211.387 428.638C211.387 428.622 211.379 428.605 211.379 428.58C211.61 431.655 210.396 423.125 211.37 428.547C211.362 428.448 211.354 428.341 211.346 428.217C211.321 427.919 211.288 427.555 211.238 427.101C208.405 399.42 208.586 367.763 207.356 341.677C207.273 339.991 207.188 338.376 207.099 336.833C207.075 336.321 207.042 335.816 207.009 335.321C207.066 335.172 207.132 335.015 207.207 334.866C207.223 334.823 207.242 334.782 207.265 334.742C207.289 334.691 207.317 334.641 207.347 334.593C207.364 334.568 207.389 334.535 207.405 334.511C207.417 334.482 207.431 334.455 207.446 334.428C207.521 334.312 207.603 334.188 207.694 334.072C207.736 334.023 207.769 333.981 207.81 333.94C207.838 333.898 207.872 333.859 207.909 333.825C207.934 333.785 207.965 333.749 208 333.717C208.033 333.684 208.066 333.643 208.107 333.601C208.125 333.575 208.147 333.553 208.173 333.535C208.239 333.46 208.311 333.391 208.388 333.329C208.683 333.057 208.998 332.809 209.33 332.585C209.446 332.51 209.569 332.436 209.685 332.353C210.518 331.855 211.394 331.434 212.304 331.097C212.618 330.981 212.932 330.874 213.27 330.758C213.394 330.725 213.51 330.684 213.634 330.642C213.816 330.584 213.997 330.527 214.187 330.485C215.129 330.204 216.145 329.965 217.244 329.741C217.376 329.717 217.517 329.692 217.657 329.659C217.855 329.617 218.062 329.584 218.268 329.551C218.549 329.502 218.838 329.452 219.128 329.402C221.581 329.014 224.365 328.725 227.438 328.535C227.727 328.518 228.017 328.502 228.306 328.485C228.644 328.468 228.983 328.452 229.33 328.435C229.619 328.419 229.917 328.411 230.214 328.402C230.503 328.386 230.801 328.378 231.106 328.369C231.941 328.345 232.8 328.32 233.675 328.303C236.17 328.254 238.797 328.27 241.556 328.328C242.837 328.361 244.142 328.394 245.481 328.452C245.571 328.452 245.654 328.46 245.737 328.46C246.901 328.502 248.074 328.551 249.281 328.617C250.123 328.659 250.974 328.7 251.825 328.75C252.626 328.799 253.436 328.849 254.254 328.907C254.89 328.94 255.526 328.989 256.17 329.031C256.716 329.072 257.261 329.113 257.806 329.146L258.549 329.196C258.954 329.229 259.359 329.254 259.772 329.295C260.681 329.369 261.59 329.444 262.515 329.518C263.432 329.601 264.365 329.684 265.299 329.766C266.232 329.849 267.174 329.94 268.116 330.031C268.215 330.039 268.306 330.047 268.397 330.055C269.256 330.146 270.115 330.229 270.982 330.32C271.181 330.336 271.387 330.353 271.586 330.378C272.413 330.461 273.256 330.558 274.09 330.647C274.346 330.675 274.601 330.701 274.858 330.73C275.512 330.801 276.156 330.863 276.815 330.94C277.682 331.039 278.566 331.13 279.425 331.246C280.094 331.32 280.764 331.394 281.433 331.477C282.482 331.601 283.548 331.733 284.613 331.874C285.018 331.923 285.423 331.973 285.828 332.031C288.868 332.411 291.941 332.833 295.064 333.271C299.797 333.94 304.605 334.668 309.446 335.453C314.295 336.238 319.172 337.067 324.077 337.941C325.316 338.164 326.555 338.387 327.802 338.618C328.364 338.726 328.926 338.833 329.488 338.941C330.446 339.114 331.404 339.296 332.362 339.478C333.321 339.66 334.279 339.842 335.237 340.032C336.377 340.255 337.526 340.478 338.666 340.701C346.175 342.189 353.643 343.776 360.929 345.438C362.127 345.71 363.325 345.991 364.515 346.264C366.894 346.818 369.251 347.38 371.586 347.95C372.23 348.099 372.867 348.256 373.503 348.413C375.089 348.81 376.675 349.207 378.236 349.612L378.509 349.686C379.657 349.967 380.781 350.256 381.904 350.554C384.556 351.248 387.164 351.951 389.727 352.662C391.429 353.133 393.112 353.609 394.775 354.092C397.262 354.811 399.699 355.538 402.07 356.274C402.656 356.455 403.243 356.637 403.821 356.811C405.556 357.348 407.266 357.894 408.926 358.439C410.248 358.869 411.537 359.307 412.809 359.745C414.081 360.183 415.329 360.621 416.551 361.059C417.336 361.34 418.113 361.638 418.889 361.919C420.004 362.332 421.103 362.746 422.177 363.159C422.508 363.283 422.83 363.415 423.152 363.539C423.358 363.63 423.557 363.704 423.755 363.787C424.143 363.944 424.54 364.093 424.92 364.25C425.308 364.399 425.688 364.556 426.068 364.721C426.44 364.87 426.82 365.027 427.183 365.184C427.555 365.333 427.919 365.49 428.282 365.655C428.588 365.779 428.885 365.911 429.174 366.043C429.761 366.3 430.347 366.556 430.917 366.82C431.198 366.953 431.479 367.077 431.76 367.209L432.404 367.506C432.495 367.556 432.586 367.597 432.677 367.639C432.883 367.738 433.098 367.845 433.305 367.944C433.784 368.168 434.255 368.407 434.717 368.631C435.337 368.945 435.94 369.259 436.518 369.565C437.105 369.879 437.675 370.193 438.22 370.499C438.311 370.548 438.394 370.598 438.484 370.647C438.608 370.713 438.732 370.788 438.856 370.854C439.278 371.094 439.682 371.342 440.087 371.581C440.88 372.069 441.632 372.548 442.334 373.028C442.491 373.135 442.64 373.243 442.797 373.342C443.317 373.714 443.813 374.077 444.276 374.449C444.276 374.458 444.276 374.458 444.284 374.458C444.441 374.573 444.589 374.697 444.738 374.813C444.862 374.929 444.994 375.028 445.118 375.144C445.548 375.516 445.944 375.871 446.308 376.235C446.43 376.347 446.545 376.466 446.655 376.59C446.703 376.63 446.747 376.674 446.787 376.722C446.952 376.888 447.101 377.053 447.241 377.218C447.263 377.241 447.282 377.266 447.299 377.293C447.497 377.524 447.679 377.756 447.853 377.987C447.935 378.103 448.026 378.218 448.1 378.334C448.2 378.475 448.299 378.624 448.381 378.764C448.456 378.88 448.522 379.004 448.588 379.119C448.763 379.417 448.912 379.73 449.034 380.053C449.127 380.273 449.201 380.499 449.257 380.731C449.32 380.951 449.367 381.175 449.397 381.401Z" fill="#2F2E41"/>
<path opacity="0.2" d="M449.398 381.401C449.389 382.847 449.373 384.872 449.307 387.377C449.298 387.724 449.282 388.079 449.274 388.443C449.191 391.956 449.067 396.295 448.894 401.197C448.885 401.494 448.877 401.784 448.861 402.081C448.629 408.065 448.266 415.033 447.638 426.068C446.473 446.45 444.441 428.87 442.4 436.019C436.733 432.531 430.521 428.878 423.879 425.125C422.681 424.448 421.472 423.767 420.252 423.084C406.968 415.67 392.132 407.9 376.642 400.205C376.031 399.899 375.411 399.593 374.8 399.296C339.318 381.748 300.59 364.68 269.215 353.29C263.159 351.091 257.376 349.108 251.941 347.363C240.491 343.702 230.594 341.14 222.977 340.032C215.047 338.875 209.569 339.288 207.355 341.677C207.273 339.991 207.187 338.376 207.099 336.833C207.066 336.321 207.033 335.817 207 335.321C207.051 335.185 207.117 335.055 207.182 334.924C207.191 334.905 207.197 334.885 207.207 334.866C207.223 334.823 207.242 334.782 207.265 334.742C207.289 334.691 207.317 334.641 207.347 334.593C207.374 334.535 207.407 334.479 207.446 334.428C207.521 334.312 207.603 334.188 207.694 334.073C207.761 333.986 207.833 333.903 207.909 333.825C207.934 333.785 207.965 333.749 208 333.717C208.033 333.684 208.066 333.643 208.107 333.601C208.125 333.575 208.147 333.553 208.173 333.535C208.239 333.46 208.311 333.391 208.388 333.329C208.683 333.057 208.998 332.809 209.33 332.585C209.445 332.51 209.569 332.436 209.685 332.353C210.518 331.855 211.394 331.434 212.304 331.097C212.618 330.981 212.932 330.874 213.27 330.758C213.394 330.725 213.51 330.684 213.634 330.642C213.816 330.585 213.997 330.527 214.187 330.485C215.129 330.204 216.145 329.965 217.244 329.741C217.574 329.675 217.921 329.609 218.268 329.551C218.549 329.502 218.838 329.452 219.128 329.403C221.581 329.014 224.365 328.725 227.438 328.535C227.727 328.518 228.016 328.502 228.306 328.485C228.644 328.469 228.983 328.452 229.33 328.435C229.619 328.419 229.917 328.411 230.214 328.402C230.503 328.386 230.8 328.378 231.106 328.369C231.941 328.345 232.8 328.32 233.675 328.303C236.17 328.262 238.797 328.278 241.556 328.336C242.837 328.361 244.142 328.402 245.48 328.46C245.563 328.46 245.654 328.469 245.737 328.469C246.901 328.502 248.083 328.559 249.281 328.617C250.123 328.659 250.974 328.7 251.825 328.75C252.626 328.799 253.436 328.849 254.254 328.907C254.89 328.94 255.526 328.989 256.17 329.031C256.715 329.072 257.261 329.113 257.806 329.146C258.459 329.196 259.111 329.246 259.772 329.295C260.681 329.369 261.59 329.444 262.515 329.518C263.432 329.601 264.365 329.684 265.299 329.766C266.232 329.849 267.174 329.94 268.116 330.031C268.215 330.039 268.306 330.047 268.397 330.056C269.256 330.146 270.115 330.229 270.982 330.32C275.79 330.808 280.739 331.378 285.828 332.031C288.868 332.419 291.946 332.835 295.064 333.279C299.797 333.949 304.605 334.676 309.446 335.453C314.295 336.238 319.172 337.067 324.077 337.941C325.316 338.164 326.555 338.387 327.802 338.619C329.322 338.9 330.842 339.186 332.362 339.478C333.321 339.66 334.279 339.842 335.237 340.032C336.377 340.255 337.526 340.478 338.666 340.701C346.175 342.189 353.643 343.776 360.929 345.438C362.127 345.71 363.325 345.991 364.515 346.264C366.894 346.818 369.251 347.38 371.586 347.95C372.23 348.107 372.867 348.264 373.503 348.421C375.097 348.818 376.675 349.215 378.236 349.612V349.62C378.327 349.636 378.418 349.661 378.509 349.686C379.649 349.975 380.781 350.265 381.904 350.562C384.556 351.257 387.164 351.956 389.728 352.662C391.429 353.141 393.115 353.612 394.775 354.092C397.262 354.819 399.699 355.546 402.07 356.274C402.656 356.456 403.243 356.637 403.821 356.811C405.556 357.356 407.258 357.899 408.926 358.439C410.248 358.869 411.537 359.307 412.809 359.745C414.081 360.183 415.329 360.621 416.551 361.059C417.344 361.34 418.121 361.63 418.889 361.911C420.013 362.324 421.103 362.737 422.177 363.159C422.508 363.283 422.83 363.415 423.152 363.539C423.755 363.771 424.342 364.01 424.92 364.25C425.308 364.399 425.688 364.556 426.068 364.721C426.44 364.87 426.82 365.027 427.183 365.184C427.555 365.333 427.919 365.49 428.282 365.655C428.588 365.779 428.885 365.911 429.174 366.044C429.761 366.3 430.347 366.556 430.917 366.82C431.198 366.953 431.479 367.077 431.76 367.209L432.404 367.507C432.495 367.556 432.586 367.597 432.677 367.639C433.379 367.969 434.057 368.3 434.717 368.631C435.337 368.945 435.94 369.259 436.518 369.565C437.204 369.928 437.857 370.284 438.485 370.647C438.608 370.713 438.732 370.788 438.856 370.854C439.278 371.094 439.682 371.342 440.087 371.581C440.88 372.069 441.632 372.548 442.334 373.028C443.028 373.507 443.673 373.978 444.276 374.45C444.276 374.458 444.276 374.458 444.284 374.458C444.573 374.689 444.854 374.921 445.118 375.144C445.548 375.516 445.944 375.871 446.308 376.235C446.43 376.347 446.545 376.466 446.655 376.59C446.703 376.63 446.747 376.674 446.787 376.723C446.96 376.913 447.134 377.103 447.299 377.293C447.497 377.524 447.679 377.756 447.853 377.987C447.935 378.103 448.026 378.219 448.101 378.334C448.2 378.475 448.299 378.624 448.381 378.764C448.456 378.88 448.522 379.004 448.588 379.12C448.763 379.417 448.912 379.73 449.034 380.054C449.124 380.274 449.199 380.5 449.257 380.731C449.32 380.951 449.367 381.175 449.398 381.401Z" fill="black"/>
</g>
<defs>
<clipPath id="clip0_17_141">
<rect width="650" height="473" fill="white"/>
</clipPath>
</defs>
</svg>
